<?xml version="1.0" encoding="utf-8" standalone="no"?>
<!-- Creator: Highsoft AS -->
<!DOCTYPE svg PUBLIC "-//W3C//DTD SVG 1.1//EN" "http://www.w3.org/Graphics/SVG/1.1/DTD/svg11.dtd">

<svg version="1.1" height="700pt" width="700pt" xmlns="http://www.w3.org/2000/svg" xmlns:xlink="http://www.w3.org/1999/xlink">
<title>Europe</title>
<g id="Europe">

<path fill="#CEE3F5" stroke="#6E6E6E" stroke-width="0.1" id="DK" d="M302.8,342.6 L308.5,348.2 L305.3,348.7 L300.1,345.7 Z M295.0,344.6 L296.1,344.8 L299.6,338.9 L297.3,346.7 Z M341.4,335.7 L344.3,337.4 L343.7,340.1 L339.4,338.3 Z M293.0,330.5 L297.8,335.1 L297.2,340.5 L295.1,341.3 L291.6,340.1 L288.1,337.1 L286.0,332.6 Z M278.3,305.3 L277.9,308.1 L275.5,310.4 L274.5,308.3 Z M283.3,345.4 L276.8,343.5 L275.0,343.6 L274.7,333.5 L269.2,331.1 L270.4,326.5 L272.5,325.0 L269.6,320.7 L270.0,312.7 L274.6,312.3 L278.7,308.1 L281.9,311.4 L280.8,306.5 L283.6,304.1 L281.9,304.4 L280.4,303.4 L275.9,305.3 L273.8,308.5 L274.3,312.0 L271.4,308.5 L275.3,302.1 L283.4,301.4 L289.0,293.5 L295.3,290.5 L293.7,293.9 L294.8,300.1 L292.1,306.3 L293.1,312.7 L297.5,313.2 L299.3,314.8 L294.9,321.3 L293.6,317.6 L291.7,320.4 L292.0,324.8 L288.3,326.3 L290.0,327.9 L284.1,332.7 L286.3,337.2 L284.0,338.8 L286.4,341.6 Z M301.5,331.4 L299.5,328.3 L302.6,328.1 L306.8,324.7 L308.5,329.0 L312.8,320.4 L316.8,321.9 L316.8,328.3 L313.0,333.4 L315.3,334.9 L311.6,338.8 L314.2,342.4 L310.5,347.3 L308.2,344.0 L309.6,342.0 L307.0,338.3 L302.8,338.0 Z">
  <desc xmlns="http://www.highcharts.com/svg/namespace">
    <iso-a3>DNK</iso-a3>
    <country-abbrev>Den.</country-abbrev>
    <subregion>Northern Europe</subregion>
    <note>NULL</note>
    <woe-id>23424796</woe-id>
    <region-wb>Europe &amp; Central Asia</region-wb>
    <name>Denmark</name>
    <iso-a2>DK</iso-a2>
    <region-un>Europe</region-un>
    <continent>Europe</continent>
  </desc>
</path>

<path fill="#CEE3F5" stroke="#6E6E6E" stroke-width="0.1" id="GB" d="M156.6,410.1 L159.1,412.0 L155.8,413.4 L153.9,411.6 Z M127.8,357.6 L128.3,355.4 L133.8,358.2 L129.9,360.7 Z M130.3,316.9 L128.2,315.6 L128.9,311.8 L130.8,312.5 Z M121.8,307.5 L119.6,310.3 L118.2,306.5 L121.8,305.4 Z M126.7,302.3 L126.5,303.9 L123.1,308.3 L122.4,306.0 Z M118.9,270.8 L118.4,274.5 L115.6,276.8 L117.0,278.4 L114.5,281.1 L114.3,278.8 L116.7,273.3 L115.0,272.1 Z M130.0,277.0 L129.6,282.3 L132.2,282.4 L127.7,285.9 L128.2,282.8 L125.2,282.8 L121.8,276.4 L126.0,276.2 L127.5,273.0 L128.6,275.4 L128.3,280.6 Z M125.0,262.6 L125.1,261.2 L131.3,258.3 L131.6,261.5 L128.8,263.5 L128.5,266.8 L126.2,268.5 L121.1,270.8 L120.3,269.2 L121.6,268.5 L121.4,263.4 L122.9,261.5 Z M165.3,250.9 L166.5,251.5 L164.2,253.2 L166.9,257.5 L164.7,258.9 L164.4,256.6 L161.6,257.3 L160.7,259.3 L159.8,257.3 L161.1,256.0 L161.7,252.9 L163.6,253.3 Z M187.0,234.0 L185.0,236.9 L184.9,239.1 L183.4,242.2 L182.5,241.6 L183.4,237.9 L184.5,235.5 L182.5,236.9 L181.2,235.5 L181.1,233.8 L183.8,234.0 L183.6,230.7 L182.1,230.6 L185.0,228.6 L185.0,230.9 L184.0,232.4 L186.9,232.1 Z M188.4,227.5 L187.5,226.7 L189.8,224.9 L189.9,230.0 Z M106.7,318.5 L108.5,319.5 L110.2,317.0 L115.5,317.2 L119.2,318.8 L121.1,328.4 L122.9,330.2 L119.8,335.3 L115.0,340.3 L112.8,338.6 L108.9,338.8 L105.9,331.0 L101.8,335.6 L96.6,332.6 L94.5,327.0 L99.4,325.4 L102.2,323.7 Z M130.7,342.6 L128.5,342.7 L132.4,337.7 L134.5,339.7 Z M51.2,671.1 L51.1,671.4 L51.0,671.6 L50.9,671.4 L50.9,671.0 Z M652.6,667.1 L650.9,667.2 L648.6,668.0 L649.4,666.8 L651.9,666.5 Z M663.8,656.6 L663.3,657.2 L662.1,656.9 L661.6,656.8 L662.0,656.9 L661.7,656.9 L660.9,657.4 L660.8,657.1 L660.6,656.5 L660.2,656.4 L661.5,656.0 L663.4,654.5 L663.3,654.7 L661.9,655.7 Z M661.4,656.6 L661.4,656.5 L661.4,656.3 L661.2,656.4 L661.2,656.6 Z M125.5,292.9 L124.2,291.5 L128.1,291.4 L128.4,288.8 L132.7,282.3 L131.0,280.4 L131.6,276.3 L133.2,277.5 L133.0,271.5 L137.7,270.6 L140.0,272.5 L137.5,267.9 L138.6,265.1 L141.2,263.5 L144.0,258.9 L146.9,260.9 L155.1,262.2 L159.2,261.4 L162.9,262.4 L159.8,268.2 L150.2,273.2 L150.2,275.6 L152.6,275.9 L146.9,281.1 L153.9,279.7 L155.2,278.6 L159.1,280.1 L170.4,281.9 L171.5,286.0 L168.8,288.5 L165.0,296.3 L161.0,301.1 L156.9,302.8 L159.5,306.5 L155.3,307.2 L152.6,309.6 L148.4,309.5 L153.1,311.7 L156.5,310.1 L162.8,314.0 L165.3,319.8 L167.1,321.0 L167.0,328.9 L168.2,336.4 L169.8,339.6 L175.2,343.2 L176.4,347.3 L179.5,350.7 L177.7,352.1 L180.6,359.7 L177.0,359.6 L180.3,362.8 L181.8,367.6 L181.3,370.2 L177.3,373.4 L181.1,375.7 L183.7,372.7 L191.5,374.5 L195.3,377.8 L196.1,383.3 L193.1,390.5 L185.6,394.5 L183.8,399.2 L178.8,399.6 L184.5,403.2 L189.7,403.1 L188.4,407.8 L184.3,409.0 L174.8,413.3 L169.8,411.0 L162.1,411.7 L161.3,409.8 L148.8,410.4 L148.0,412.0 L142.3,411.3 L138.2,407.7 L133.4,408.0 L130.2,409.8 L127.3,415.3 L121.8,411.4 L114.7,410.8 L110.7,412.5 L108.2,416.5 L106.2,411.6 L115.3,405.9 L118.9,402.6 L119.9,398.9 L122.0,399.6 L125.0,396.1 L129.5,396.4 L137.9,399.0 L138.4,396.8 L142.4,394.0 L139.7,392.3 L136.7,394.9 L132.7,394.1 L129.8,389.3 L124.6,389.6 L124.2,385.5 L117.4,387.3 L114.7,380.6 L120.3,379.8 L128.3,376.6 L130.9,372.1 L131.7,365.2 L124.0,366.0 L129.3,362.5 L132.3,359.3 L143.4,358.6 L147.7,352.7 L147.1,348.8 L150.1,345.7 L148.0,343.5 L145.3,345.1 L142.5,337.0 L146.4,330.7 L148.5,329.7 L144.9,328.3 L144.2,330.3 L139.9,331.5 L135.8,328.1 L135.3,332.3 L130.8,327.9 L129.9,332.2 L127.9,327.6 L130.3,322.6 L135.7,316.9 L133.4,312.4 L135.8,308.2 L135.7,305.2 L132.7,311.0 L129.9,308.1 L127.3,312.3 L126.0,317.2 L122.9,317.7 L126.5,309.9 L126.5,305.7 L129.3,302.4 L127.8,301.4 L130.0,298.4 L133.8,293.3 L128.9,296.4 L125.7,293.1 L128.6,298.2 L121.3,298.9 L123.8,295.8 L122.8,292.9 Z">
  <desc xmlns="http://www.highcharts.com/svg/namespace">
    <iso-a3>GBR</iso-a3>
    <country-abbrev>U.K.</country-abbrev>
    <subregion>Northern Europe</subregion>
    <note>NULL</note>
    <woe-id>-90</woe-id>
    <region-wb>Europe &amp; Central Asia</region-wb>
    <name>United Kingdom</name>
    <iso-a2>GB</iso-a2>
    <region-un>Europe</region-un>
    <continent>Europe</continent>
  </desc>
</path>

<path fill="#CEE3F5" stroke="#6E6E6E" stroke-width="0.1" id="NOR" d="M277.1,178.7 L279.3,176.2 L281.8,181.6 L274.7,182.7 Z M308.5,143.6 L309.3,145.9 L306.1,149.3 L306.4,146.6 Z M312.2,94.3 L312.2,96.2 L309.8,99.1 L311.7,93.7 Z M319.2,89.4 L315.9,93.8 L314.7,90.5 L318.0,88.5 Z M325.0,88.7 L319.8,92.0 L322.7,86.4 L326.4,85.6 Z M330.1,74.2 L327.5,75.6 L328.3,72.7 L331.6,68.3 Z M349.2,55.4 L349.7,61.0 L345.6,62.7 L346.1,57.5 Z M350.8,50.5 L352.6,52.7 L355.1,54.9 L351.3,56.9 L348.2,54.1 L347.7,51.0 Z M361.7,49.4 L363.9,50.7 L358.9,49.6 L359.8,46.8 Z M356.5,51.7 L355.2,51.0 L353.6,48.0 L357.3,49.7 Z M373.2,41.7 L375.7,43.9 L371.9,43.8 L371.9,41.9 Z M377.6,36.2 L379.2,38.8 L376.3,43.2 L374.3,40.1 Z M379.3,34.0 L381.7,35.3 L379.6,37.7 L378.2,34.4 Z M376.1,31.9 L375.9,35.2 L373.8,38.5 L369.3,40.4 L370.1,37.6 L368.0,38.3 L370.1,35.9 L373.2,36.4 Z M389.3,22.8 L393.2,25.1 L389.4,27.4 L387.4,25.5 Z M175.2,19.1 L174.3,21.8 L166.5,22.9 L171.1,21.2 Z M429.1,40.1 L426.5,44.7 L420.7,58.4 L421.1,49.4 L408.5,40.4 L397.9,50.5 L394.7,73.9 L377.1,74.4 L370.0,64.6 L363.6,70.1 L360.6,84.1 L347.6,82.2 L334.9,105.1 L324.7,130.9 L325.5,146.4 L307.8,180.1 L312.9,245.7 L303.3,267.1 L302.6,265.1 L297.3,264.0 L295.1,259.2 L295.6,255.9 L294.0,257.5 L293.9,262.5 L289.0,267.9 L286.4,267.9 L274.6,280.9 L270.8,283.7 L269.9,281.4 L268.7,284.0 L265.3,285.1 L259.6,284.7 L255.0,282.8 L256.8,280.9 L250.1,277.5 L247.3,274.8 L245.4,270.3 L246.8,263.5 L249.6,264.4 L253.4,261.0 L250.5,261.8 L251.9,258.6 L247.8,260.2 L247.2,258.0 L245.5,262.8 L244.8,258.0 L244.1,262.5 L242.9,261.9 L243.5,256.0 L246.6,251.9 L249.0,253.3 L250.5,251.7 L248.3,249.9 L251.4,248.1 L253.3,243.3 L257.5,238.9 L253.9,240.7 L250.6,244.2 L250.4,246.8 L248.8,246.4 L248.0,242.6 L246.6,243.9 L245.6,241.9 L242.2,241.2 L243.7,240.8 L245.6,239.5 L245.9,236.4 L242.7,231.7 L246.1,233.6 L246.1,231.5 L243.9,230.9 L243.9,227.1 L247.7,227.7 L252.0,226.2 L255.4,227.8 L258.4,225.5 L261.6,226.8 L257.6,223.8 L256.9,226.6 L254.6,225.2 L248.9,225.7 L247.2,226.7 L243.9,223.7 L243.7,220.1 L247.6,217.7 L244.4,216.1 L243.0,212.0 L248.1,211.1 L251.3,212.7 L258.3,213.4 L248.7,210.6 L246.2,211.2 L247.8,208.8 L245.8,206.1 L246.9,205.2 L249.1,208.2 L249.0,205.9 L250.8,203.2 L252.8,204.3 L253.8,201.6 L254.4,203.9 L260.5,201.5 L255.1,202.1 L259.8,199.4 L260.6,196.2 L262.2,198.7 L264.0,197.8 L267.7,200.1 L267.8,197.5 L263.0,196.4 L262.7,192.5 L265.9,191.0 L266.7,191.8 L269.2,189.3 L269.4,193.1 L271.9,191.9 L272.9,189.4 L274.9,193.8 L277.4,193.9 L274.1,190.9 L273.8,188.6 L271.6,188.1 L273.0,185.3 L270.5,183.6 L272.4,182.5 L273.9,184.1 L273.2,187.0 L278.8,185.0 L279.4,183.5 L283.1,184.8 L282.3,182.1 L286.8,179.5 L289.0,183.6 L288.0,185.5 L290.2,185.6 L290.2,183.4 L291.9,182.9 L296.2,183.8 L295.1,181.3 L298.1,178.0 L301.7,176.4 L298.6,174.8 L301.9,172.2 L299.9,172.0 L297.4,173.7 L298.4,175.8 L297.1,177.8 L292.9,180.7 L288.7,182.0 L287.7,178.6 L285.5,179.1 L285.6,177.0 L291.0,173.9 L288.8,173.5 L290.8,168.9 L294.4,165.7 L294.4,164.1 L296.7,163.6 L297.2,161.2 L299.0,164.2 L298.3,160.2 L304.4,157.2 L295.4,156.5 L298.0,153.8 L299.7,155.5 L304.2,153.7 L307.0,149.3 L308.0,151.2 L310.4,150.9 L312.8,146.8 L309.5,150.5 L308.2,148.2 L310.5,145.3 L309.8,142.0 L308.0,141.1 L310.7,137.4 L310.0,132.3 L307.3,133.9 L309.4,131.1 L310.4,132.6 L316.8,129.2 L312.9,130.2 L315.1,128.1 L312.6,127.1 L313.8,126.0 L312.4,124.1 L311.7,129.3 L310.8,129.8 L312.2,123.9 L314.1,124.2 L314.3,121.7 L316.0,120.8 L316.3,118.3 L318.3,118.1 L316.6,115.7 L319.9,114.4 L320.0,111.7 L321.3,114.6 L322.2,111.1 L325.2,109.9 L326.2,111.2 L328.0,107.8 L324.4,109.9 L321.8,109.6 L324.0,105.8 L325.3,106.7 L326.9,105.2 L324.5,104.6 L326.4,103.0 L328.4,103.6 L327.7,101.3 L330.5,99.1 L328.9,98.1 L325.1,101.6 L326.3,99.5 L324.5,98.1 L325.7,95.1 L327.4,93.7 L327.7,96.9 L332.8,93.8 L328.4,94.4 L329.3,91.7 L333.5,90.6 L333.3,93.4 L335.0,96.1 L335.9,89.4 L333.8,87.7 L337.4,85.7 L338.4,87.2 L343.4,84.6 L343.2,82.7 L339.8,84.9 L336.2,85.2 L336.1,81.8 L337.7,80.3 L338.8,76.6 L340.7,79.1 L339.3,75.3 L341.5,75.7 L340.8,73.0 L345.6,69.8 L344.8,67.6 L346.4,63.5 L348.9,66.9 L351.1,65.9 L347.6,64.2 L347.7,62.6 L350.7,61.5 L351.2,58.0 L355.7,56.0 L355.3,58.5 L356.7,59.4 L357.9,53.0 L359.7,53.7 L359.5,63.2 L361.1,59.7 L360.7,53.5 L364.8,53.3 L365.8,50.0 L369.9,53.4 L368.7,49.1 L366.4,48.7 L364.0,46.7 L365.8,44.3 L368.6,47.2 L367.9,44.9 L370.7,43.9 L375.6,44.8 L376.7,48.1 L379.0,49.4 L380.1,47.6 L377.4,46.8 L378.7,45.6 L377.6,44.1 L379.3,42.4 L378.6,41.1 L381.8,36.7 L382.8,33.7 L384.8,34.6 L383.8,32.3 L382.2,32.3 L382.4,30.2 L384.2,31.6 L383.3,28.6 L383.5,25.1 L384.4,27.7 L388.1,30.5 L389.0,29.0 L392.2,28.3 L388.2,36.3 L389.2,35.6 L389.9,40.0 L388.7,41.8 L389.2,44.7 L390.4,44.5 L392.1,39.7 L391.2,39.3 L393.8,32.6 L395.0,27.4 L396.6,25.3 L397.8,31.4 L398.1,37.0 L400.9,31.0 L400.4,28.7 L402.4,26.1 L399.5,25.3 L402.0,24.0 L401.4,21.2 L403.7,21.9 L405.4,20.4 L405.8,22.2 L408.1,21.9 L407.1,26.2 L404.1,26.8 L406.7,27.3 L404.3,30.5 L408.0,27.6 L408.0,29.4 L406.2,32.6 L409.1,33.2 L409.3,26.9 L410.2,23.5 L411.8,22.9 L414.5,24.2 L414.7,26.0 L417.2,24.6 L417.1,26.8 L418.6,24.5 L425.5,28.7 L425.9,27.7 L427.9,30.6 L424.7,32.3 L423.2,36.4 L413.6,37.1 L412.9,38.2 L420.7,39.2 L419.4,40.9 L422.2,39.9 L425.1,41.7 L424.3,40.0 Z M244.9,251.4 L244.9,251.4 L244.9,251.4 L245.0,251.4 L245.0,251.4 L244.9,251.4 Z M244.9,251.4 L242.8,251.2 L243.8,249.6 L244.9,251.4 Z M320.4,81.5 L324.4,78.7 L323.9,77.6 L325.4,74.8 L326.6,76.8 L327.3,81.7 L324.4,85.0 L322.2,83.9 L326.0,80.8 L325.8,79.8 L322.2,82.6 Z M330.9,75.4 L330.8,78.9 L334.4,76.2 L336.0,79.9 L335.2,85.7 L330.6,85.9 L329.9,88.4 L327.9,87.5 L325.4,88.5 L327.1,85.5 L326.7,83.5 L328.6,81.9 L327.9,78.5 L329.0,75.6 Z M339.6,63.3 L341.6,64.1 L343.0,61.8 L344.7,63.5 L344.7,69.7 L337.1,73.0 L338.7,67.8 L337.2,66.2 L340.4,66.2 Z M245.0,251.4 L244.9,247.0 L248.6,245.6 L248.3,248.7 L246.2,248.1 L246.0,251.5 L245.0,251.4 L245.0,251.4 Z">
  <desc xmlns="http://www.highcharts.com/svg/namespace">
    <iso-a3>-99</iso-a3>
    <country-abbrev>Nor.</country-abbrev>
    <subregion>Northern Europe</subregion>
    <note>NULL</note>
    <woe-id>-90</woe-id>
    <region-wb>Europe &amp; Central Asia</region-wb>
    <name>Norway</name>
    <iso-a2>-99</iso-a2>
    <region-un>Europe</region-un>
    <continent>Europe</continent>
  </desc>
</path>

<path fill="#CEE3F5" stroke="#6E6E6E" stroke-width="0.1" id="GR" d="M561.9,661.5 L569.8,654.8 L569.1,661.7 L565.9,667.0 Z M522.9,653.8 L526.2,650.5 L527.5,652.2 L526.2,655.9 Z M516.0,643.3 L518.5,645.1 L510.6,639.5 L514.7,639.1 Z M448.3,640.2 L452.1,647.3 L447.7,647.1 L446.9,643.4 Z M528.3,622.9 L530.9,627.8 L529.3,631.0 L525.1,623.7 Z M530.1,608.0 L534.2,613.1 L527.9,614.4 L522.4,611.0 Z M434.6,616.6 L433.8,619.4 L435.5,622.5 L430.3,618.0 Z M513.2,598.1 L512.9,602.8 L508.4,602.8 L507.6,599.9 Z M447.9,597.5 L449.2,595.8 L447.8,597.4 L446.5,596.2 L446.8,595.6 L447.5,594.5 L448.8,594.1 L455.3,592.9 L459.2,587.9 L470.6,584.5 L472.7,580.9 L482.3,578.4 L487.8,574.3 L494.1,572.4 L500.0,574.3 L506.2,576.1 L517.4,571.3 L515.1,565.0 L518.8,564.1 L524.4,569.2 L522.3,577.8 L518.9,583.0 L517.1,581.3 L511.2,582.1 L503.7,581.1 L499.6,585.0 L501.6,589.0 L497.7,589.5 L498.9,586.0 L497.2,583.5 L491.6,589.0 L487.2,588.8 L485.8,590.7 L497.6,598.4 L490.3,596.2 L487.3,597.6 L492.2,600.6 L492.8,603.7 L487.3,599.7 L483.1,599.3 L482.5,600.8 L488.8,605.3 L483.7,605.3 L481.9,600.4 L477.7,599.4 L474.1,596.6 L474.9,593.8 L470.8,597.9 L472.3,599.5 L472.0,605.7 L477.1,610.2 L478.7,613.3 L481.6,614.7 L486.2,620.0 L479.7,617.7 L479.1,621.7 L482.7,623.3 L479.2,627.1 L479.2,629.0 L487.8,630.1 L488.7,632.7 L498.3,634.9 L502.3,644.7 L501.9,646.7 L495.6,642.2 L488.7,643.0 L486.0,645.9 L488.6,646.2 L489.1,649.9 L494.5,645.9 L492.4,650.4 L495.0,651.8 L490.8,654.1 L482.7,652.5 L491.2,665.8 L490.1,667.3 L493.7,672.2 L487.1,668.8 L485.8,666.3 L483.0,667.2 L483.1,673.4 L480.5,673.0 L480.0,669.3 L475.8,663.8 L472.6,665.2 L472.5,670.1 L469.7,670.3 L469.1,666.2 L466.5,662.8 L467.8,660.1 L465.0,655.1 L457.7,650.9 L460.5,645.0 L460.3,643.1 L463.9,643.8 L468.6,639.5 L473.1,641.6 L483.0,642.8 L488.1,640.6 L479.6,637.9 L477.5,638.6 L468.8,638.0 L462.3,641.3 L459.7,639.5 L456.8,642.0 L455.1,637.8 L451.0,633.3 L449.4,636.7 L446.9,636.0 L450.0,631.1 L454.8,628.9 L449.7,627.6 L447.7,628.6 L442.3,625.2 L435.9,618.3 L441.2,614.8 L439.6,612.1 L444.2,609.4 Z M481.8,626.5 L486.0,622.7 L488.7,625.0 L491.3,626.9 L498.7,627.3 L504.7,636.3 L505.8,639.7 L499.3,634.0 L485.4,626.9 Z M546.1,688.8 L523.1,695.9 L516.9,692.1 L502.7,692.8 L502.9,686.5 L505.0,688.1 L512.0,685.3 L514.2,689.2 L524.8,685.8 L533.2,686.5 L537.5,684.8 L539.2,688.8 L545.3,684.1 Z">
  <desc xmlns="http://www.highcharts.com/svg/namespace">
    <iso-a3>GRC</iso-a3>
    <country-abbrev>Greece</country-abbrev>
    <subregion>Southern Europe</subregion>
    <note>NULL</note>
    <woe-id>23424833</woe-id>
    <region-wb>Europe &amp; Central Asia</region-wb>
    <name>Greece</name>
    <iso-a2>GR</iso-a2>
    <region-un>Europe</region-un>
    <continent>Europe</continent>
  </desc>
</path>

<path fill="#CEE3F5" stroke="#6E6E6E" stroke-width="0.1" id="HR" d="M376.9,555.8 L381.1,554.6 L380.5,556.8 L381.3,559.3 Z M348.2,533.1 L346.6,527.7 L348.8,526.8 L349.9,533.5 Z M405.8,567.2 L406.0,567.3 L406.8,567.4 L407.0,568.9 L407.9,569.9 L397.5,563.6 L388.8,561.3 L381.2,562.9 L389.3,560.5 L395.2,562.4 L398.2,563.4 Z M409.4,523.3 L407.7,523.6 L407.0,523.4 L404.5,519.9 L398.4,519.1 L393.3,521.5 L380.9,518.6 L375.2,520.7 L373.6,524.5 L366.1,521.7 L365.7,529.3 L371.4,533.8 L373.3,539.6 L386.2,551.5 L394.1,561.5 L390.1,558.4 L386.6,556.7 L383.7,553.8 L378.8,552.5 L371.1,553.1 L370.3,549.9 L363.4,545.7 L362.1,545.9 L358.0,542.1 L363.3,545.6 L358.9,541.0 L359.6,539.5 L358.2,537.4 L355.1,535.7 L355.1,533.4 L360.2,538.3 L360.8,537.8 L356.4,533.9 L354.7,531.3 L354.9,526.9 L353.4,524.1 L350.0,522.0 L353.4,526.6 L348.1,524.9 L350.0,521.1 L346.6,520.0 L342.3,530.4 L337.3,524.9 L335.6,517.6 L336.7,518.0 L350.8,516.3 L357.1,517.9 L360.0,516.7 L358.4,512.1 L363.5,509.8 L362.6,502.9 L366.9,501.0 L369.8,496.9 L373.4,496.4 L377.8,498.3 L385.1,505.5 L392.1,508.2 L399.4,508.0 L405.4,503.7 L408.0,514.0 L413.7,516.8 L409.3,518.0 Z">
  <desc xmlns="http://www.highcharts.com/svg/namespace">
    <iso-a3>HRV</iso-a3>
    <country-abbrev>Cro.</country-abbrev>
    <subregion>Southern Europe</subregion>
    <note>NULL</note>
    <woe-id>23424843</woe-id>
    <region-wb>Europe &amp; Central Asia</region-wb>
    <name>Croatia</name>
    <iso-a2>HR</iso-a2>
    <region-un>Europe</region-un>
    <continent>Europe</continent>
  </desc>
</path>

<path fill="#CEE3F5" stroke="#6E6E6E" stroke-width="0.1" id="EE" d="M416.3,263.0 L416.8,267.5 L413.8,270.7 L409.5,272.9 L405.9,271.3 L407.0,269.4 L405.4,266.9 L411.7,263.2 Z M411.7,256.1 L415.4,258.7 L411.2,262.3 L405.6,258.2 Z M462.2,273.7 L454.7,275.7 L447.7,271.0 L439.6,268.4 L431.0,274.2 L431.4,264.9 L429.3,264.6 L427.8,267.7 L423.8,266.5 L420.9,263.1 L418.1,255.0 L418.2,251.0 L423.7,248.1 L422.8,247.0 L432.7,241.9 L435.3,242.2 L437.6,238.4 L448.6,239.5 L458.6,238.3 L459.6,236.6 L460.6,237.2 L461.7,238.5 L461.1,238.9 L460.1,239.4 L460.8,239.5 L460.9,239.5 L461.1,239.4 L460.5,239.8 L459.3,240.7 L459.4,242.9 L459.3,244.6 L459.0,246.2 L452.8,251.6 L462.8,264.4 L462.6,268.2 Z">
  <desc xmlns="http://www.highcharts.com/svg/namespace">
    <iso-a3>EST</iso-a3>
    <country-abbrev>Est.</country-abbrev>
    <subregion>Northern Europe</subregion>
    <note>NULL</note>
    <woe-id>23424805</woe-id>
    <region-wb>Europe &amp; Central Asia</region-wb>
    <name>Estonia</name>
    <iso-a2>EE</iso-a2>
    <region-un>Europe</region-un>
    <continent>Europe</continent>
  </desc>
</path>

<path fill="#CEE3F5" stroke="#6E6E6E" stroke-width="0.1" id="FI" d="M405.9,237.7 L408.6,233.4 L409.3,235.5 L408.1,237.9 Z M401.7,234.9 L401.7,234.9 L401.7,234.9 L401.7,234.9 L401.7,235.0 L401.7,234.9 Z M401.7,235.0 L401.5,236.8 L400.0,235.9 L401.7,235.0 L401.7,235.0 Z M385.9,241.9 L389.0,238.8 L388.8,240.6 L386.2,242.3 L383.3,240.2 L380.8,240.8 L378.8,240.0 L378.6,237.5 L383.1,235.1 L386.1,236.8 L384.4,238.4 L382.7,237.0 L383.6,240.4 L384.9,238.7 Z M363.6,70.1 L370.0,64.6 L377.1,74.4 L394.7,73.9 L397.9,50.5 L408.5,40.4 L421.1,49.4 L420.7,58.4 L422.9,74.4 L435.0,81.5 L432.8,99.2 L442.6,111.0 L446.0,132.3 L457.7,144.3 L455.9,154.8 L473.1,165.7 L472.7,173.9 L452.7,217.6 L450.0,220.0 L447.0,218.8 L445.7,220.6 L440.1,224.0 L436.9,223.2 L437.1,227.3 L430.4,228.8 L430.4,230.0 L425.3,232.1 L424.6,234.8 L423.4,233.5 L416.8,237.1 L415.2,237.4 L413.9,239.8 L410.8,241.0 L413.6,238.3 L413.3,236.1 L410.8,236.2 L408.9,232.0 L406.0,234.3 L406.4,231.0 L403.3,231.4 L399.0,229.3 L400.7,233.6 L398.7,232.3 L397.8,229.6 L394.5,229.5 L394.2,225.7 L393.1,224.5 L392.2,220.3 L393.6,220.2 L394.1,217.3 L392.5,209.0 L390.2,203.8 L388.9,203.2 L388.7,196.1 L386.8,195.5 L386.7,191.7 L385.5,190.4 L386.3,186.6 L388.0,184.8 L387.9,182.5 L389.6,183.1 L387.5,179.9 L385.5,181.3 L385.8,179.3 L388.8,179.9 L390.7,178.4 L392.3,176.8 L394.5,176.6 L392.5,174.3 L394.4,173.4 L394.7,170.0 L397.0,168.3 L399.5,164.7 L400.9,164.2 L400.4,161.4 L404.3,156.8 L404.2,154.3 L406.5,150.9 L406.6,148.0 L408.4,144.5 L408.0,142.4 L406.3,141.1 L408.2,139.5 L410.2,140.1 L407.7,141.4 L408.6,143.9 L410.8,142.5 L412.7,144.0 L413.6,140.9 L411.1,138.4 L410.7,131.4 L408.2,129.5 L405.0,129.7 L403.2,126.6 L400.2,126.9 L393.9,116.1 L395.2,108.5 L390.9,102.6 L388.6,96.5 L387.6,88.9 L380.9,80.0 L375.4,79.3 Z M401.7,234.9 L401.6,233.2 L403.7,232.5 L401.8,233.8 L401.7,234.9 Z">
  <desc xmlns="http://www.highcharts.com/svg/namespace">
    <iso-a3>FIN</iso-a3>
    <country-abbrev>Fin.</country-abbrev>
    <subregion>Northern Europe</subregion>
    <note>NULL</note>
    <woe-id>23424812</woe-id>
    <region-wb>Europe &amp; Central Asia</region-wb>
    <name>Finland</name>
    <iso-a2>FI</iso-a2>
    <region-un>Europe</region-un>
    <continent>Europe</continent>
  </desc>
</path>

<path fill="#CEE3F5" stroke="#6E6E6E" stroke-width="0.1" id="BA" d="M407.0,523.4 L406.1,527.9 L410.4,530.3 L403.9,545.3 L403.7,551.0 L399.3,551.4 L400.9,562.3 L405.8,567.2 L398.2,563.4 L395.2,562.4 L393.8,561.7 L394.1,561.5 L386.2,551.5 L373.3,539.6 L371.4,533.8 L365.7,529.3 L366.1,521.7 L373.6,524.5 L375.2,520.7 L380.9,518.6 L393.3,521.5 L398.4,519.1 L404.5,519.9 Z">
  <desc xmlns="http://www.highcharts.com/svg/namespace">
    <iso-a3>BIH</iso-a3>
    <country-abbrev>B.H.</country-abbrev>
    <subregion>Southern Europe</subregion>
    <note>NULL</note>
    <woe-id>23424761</woe-id>
    <region-wb>Europe &amp; Central Asia</region-wb>
    <name>Bosnia and Herzegovina</name>
    <iso-a2>BA</iso-a2>
    <region-un>Europe</region-un>
    <continent>Europe</continent>
  </desc>
</path>

<path fill="#CEE3F5" stroke="#6E6E6E" stroke-width="0.1" id="ES" d="M161.6,638.8 L158.7,635.6 L161.2,632.6 L165.0,633.9 Z M189.8,618.6 L193.7,623.1 L186.8,631.7 L177.1,624.1 Z M203.6,618.1 L205.9,622.8 L199.2,620.0 L199.3,617.9 Z M177.6,570.2 L177.3,570.2 L177.1,569.8 L177.5,569.4 L177.8,570.2 Z M51.2,671.1 L50.9,671.0 L46.5,672.7 L39.4,665.2 L37.1,651.7 L24.4,644.1 L24.4,636.7 L30.1,630.0 L34.0,630.0 L31.0,621.0 L39.2,611.8 L33.8,597.4 L41.3,599.1 L44.9,593.7 L47.7,587.6 L48.5,574.9 L61.1,567.1 L57.7,559.4 L50.0,556.4 L42.8,557.6 L34.7,554.5 L36.1,549.6 L28.0,551.1 L26.6,548.1 L31.3,545.5 L27.8,545.4 L31.4,543.1 L28.6,542.6 L30.8,538.7 L27.2,539.9 L29.7,535.6 L25.4,531.8 L28.8,527.3 L33.4,525.8 L35.2,527.2 L40.5,526.4 L41.5,523.5 L48.2,521.4 L54.6,524.6 L55.9,527.1 L69.4,529.8 L80.0,532.8 L83.0,534.9 L93.2,539.0 L104.9,538.8 L105.3,540.5 L110.6,542.7 L115.4,542.0 L123.4,546.5 L128.2,545.4 L133.1,548.9 L131.4,551.8 L146.7,558.6 L150.2,562.1 L159.8,563.4 L160.1,560.6 L170.2,566.5 L171.0,569.7 L173.9,568.6 L178.3,572.0 L194.2,572.1 L194.1,581.0 L189.4,585.3 L176.2,592.3 L160.5,594.9 L144.7,612.1 L137.7,621.0 L138.1,629.5 L143.7,636.9 L131.7,642.8 L126.6,651.3 L126.7,656.0 L118.5,655.5 L111.4,658.6 L102.5,669.3 L67.2,663.2 L54.6,666.5 Z">
  <desc xmlns="http://www.highcharts.com/svg/namespace">
    <iso-a3>ESP</iso-a3>
    <country-abbrev>Sp.</country-abbrev>
    <subregion>Southern Europe</subregion>
    <note>NULL</note>
    <woe-id>23424950</woe-id>
    <region-wb>Europe &amp; Central Asia</region-wb>
    <name>Spain</name>
    <iso-a2>ES</iso-a2>
    <region-un>Europe</region-un>
    <continent>Europe</continent>
  </desc>
</path>

<path fill="#CEE3F5" stroke="#6E6E6E" stroke-width="0.1" id="SE" d="M360.7,294.6 L360.9,296.8 L355.9,316.0 L355.3,310.1 Z M379.6,282.6 L377.2,285.4 L379.2,291.4 L374.4,297.2 L373.9,300.8 L371.2,295.1 L370.8,290.4 L376.2,282.1 Z M306.4,284.4 L304.6,286.5 L303.5,282.7 L305.8,280.3 Z M303.3,267.1 L312.9,245.7 L307.8,180.1 L325.5,146.4 L324.7,130.9 L334.9,105.1 L347.6,82.2 L360.6,84.1 L363.6,70.1 L375.4,79.3 L380.9,80.0 L387.6,88.9 L388.6,96.5 L390.9,102.6 L395.2,108.5 L393.9,116.1 L400.2,126.9 L397.5,128.1 L394.1,128.1 L392.6,130.5 L388.1,127.6 L388.9,129.7 L386.2,128.8 L387.5,134.8 L382.2,132.9 L387.3,135.6 L385.9,137.2 L385.7,135.1 L383.2,135.6 L384.3,137.9 L380.8,138.8 L382.8,140.6 L382.6,143.3 L380.0,149.7 L378.9,150.2 L383.7,156.5 L380.2,163.3 L379.5,168.4 L377.4,169.7 L376.2,173.1 L374.2,173.1 L371.9,176.2 L371.6,178.0 L369.4,175.8 L370.1,178.6 L368.1,177.9 L368.3,180.1 L366.7,183.5 L365.6,183.0 L363.4,184.5 L361.7,188.5 L361.0,190.6 L360.0,193.7 L356.9,198.8 L354.3,197.2 L353.7,199.7 L355.6,203.1 L354.7,208.2 L355.6,212.5 L352.8,215.4 L354.0,217.1 L354.9,226.4 L356.6,230.9 L355.6,231.8 L359.3,232.5 L360.1,234.9 L362.5,233.0 L365.7,237.3 L368.0,237.1 L367.0,238.5 L368.9,240.7 L371.9,241.1 L373.1,244.2 L374.9,246.1 L369.5,253.2 L365.8,255.2 L370.5,255.8 L369.7,254.2 L371.4,251.9 L370.9,254.9 L372.9,256.2 L371.1,258.0 L368.6,256.7 L371.1,260.6 L368.5,260.4 L365.8,264.5 L361.7,265.8 L361.8,267.3 L359.0,268.7 L356.9,270.9 L350.1,270.7 L352.0,271.9 L355.6,271.4 L357.3,273.4 L355.4,277.6 L356.4,278.1 L355.5,283.0 L353.2,285.0 L356.4,288.5 L355.1,288.3 L356.6,292.6 L355.4,294.4 L354.9,298.3 L356.3,300.6 L352.4,312.7 L352.0,315.8 L350.3,319.1 L350.0,317.8 L347.3,317.1 L344.8,318.6 L340.9,318.2 L338.1,318.9 L339.1,321.0 L336.1,321.2 L333.5,325.2 L333.5,327.0 L335.5,330.7 L333.7,333.3 L330.5,332.7 L324.2,334.6 L320.7,333.3 L320.3,330.4 L321.6,328.6 L320.1,327.3 L315.4,317.6 L318.4,318.4 L316.5,314.9 L319.2,314.1 L318.9,310.5 L317.5,310.6 L316.0,307.4 L313.6,305.8 L310.1,295.7 L308.9,297.5 L308.6,292.7 L306.5,290.8 L306.2,288.7 L307.8,281.5 L307.4,279.7 L304.2,280.5 L303.3,277.6 L301.5,279.4 L302.0,274.9 L300.2,267.6 L301.2,265.3 Z">
  <desc xmlns="http://www.highcharts.com/svg/namespace">
    <iso-a3>SWE</iso-a3>
    <country-abbrev>Swe.</country-abbrev>
    <subregion>Northern Europe</subregion>
    <note>NULL</note>
    <woe-id>23424954</woe-id>
    <region-wb>Europe &amp; Central Asia</region-wb>
    <name>Sweden</name>
    <iso-a2>SE</iso-a2>
    <region-un>Europe</region-un>
    <continent>Europe</continent>
  </desc>
</path>

<path fill="#CEE3F5" stroke="#6E6E6E" stroke-width="0.1" id="RU" d="M495.0,115.0 L493.7,117.3 L490.9,115.7 L492.8,113.8 Z M427.5,341.5 L426.9,341.9 L395.0,345.2 L401.3,339.6 L393.5,345.1 L393.4,345.0 L396.6,335.3 L405.2,327.8 L405.9,327.8 L401.9,334.3 L408.9,327.8 L426.2,331.6 Z M476.4,296.8 L468.0,284.8 L462.2,273.7 L462.6,268.2 L462.8,264.4 L468.2,265.8 L465.0,260.5 L462.1,255.6 L459.0,246.2 L459.3,244.6 L459.4,242.9 L459.9,240.5 L460.5,239.8 L460.8,239.5 L460.1,239.4 L460.8,239.5 L461.7,238.5 L460.6,237.2 L459.6,236.6 L458.7,230.7 L466.7,228.0 L467.6,224.4 L477.5,224.0 L473.0,219.7 L465.3,221.3 L461.0,219.7 L459.7,212.2 L456.4,216.8 L452.7,217.6 L472.7,173.9 L473.1,165.7 L455.9,154.8 L457.7,144.3 L446.0,132.3 L442.6,111.0 L432.8,99.2 L435.0,81.5 L422.9,74.4 L420.7,58.4 L426.5,44.7 L429.1,40.1 L436.1,40.4 L436.0,34.7 L444.7,38.2 L438.6,40.3 L441.9,42.2 L453.5,42.1 L466.4,40.5 L481.0,44.6 L488.6,49.0 L501.6,50.5 L511.0,53.1 L515.2,60.6 L518.9,64.1 L517.4,77.6 L511.7,85.9 L501.9,91.0 L492.9,90.5 L481.1,92.2 L475.7,90.2 L465.4,91.4 L454.2,87.0 L462.7,96.4 L468.8,96.1 L468.7,98.4 L476.7,100.0 L482.3,106.4 L481.0,113.6 L488.2,121.5 L488.8,127.4 L495.5,130.4 L498.2,128.3 L504.2,132.8 L513.3,133.2 L517.9,128.5 L515.3,122.1 L508.0,123.5 L499.2,116.2 L501.6,110.0 L511.7,112.5 L525.5,113.1 L529.4,106.6 L528.6,103.8 L520.0,97.6 L519.2,93.6 L523.2,83.8 L526.5,80.7 L528.6,69.7 L532.3,71.1 L536.7,67.8 L542.9,70.1 L547.9,74.1 L543.8,66.9 L543.1,59.4 L538.0,53.0 L534.1,53.1 L527.4,33.1 L518.3,29.8 L531.5,24.5 L536.4,24.0 L543.1,27.3 L547.0,31.5 L539.3,38.3 L540.4,46.7 L546.1,47.2 L550.3,50.9 L555.9,49.4 L561.6,42.1 L556.8,32.3 L561.2,25.9 L560.3,23.4 L564.2,18.4 L568.0,4.0 L572.0,0.0 L574.1,0.0 L575.1,2.2 L576.6,0.0 L697.4,0.0 L697.4,467.7 L696.4,467.7 L690.8,469.4 L689.2,474.0 L670.9,466.4 L659.1,466.1 L653.3,462.7 L648.4,464.9 L644.3,461.5 L633.9,460.0 L635.2,454.7 L640.0,456.9 L647.2,452.6 L643.1,447.1 L644.9,438.8 L651.4,434.6 L642.6,433.2 L637.6,428.9 L653.2,415.7 L651.4,411.3 L640.2,419.2 L638.2,409.9 L642.5,402.9 L652.8,399.0 L652.2,390.3 L643.0,379.1 L646.5,373.0 L643.8,367.4 L629.0,369.3 L618.6,368.5 L617.9,372.0 L607.9,365.5 L600.1,373.0 L593.2,371.3 L588.9,374.5 L577.1,362.2 L566.7,364.6 L561.4,352.6 L555.7,346.6 L546.9,351.7 L540.3,352.4 L535.1,358.4 L531.8,355.3 L525.3,340.0 L533.0,339.8 L538.3,333.2 L533.5,327.5 L525.5,328.3 L524.7,323.4 L518.7,321.9 L509.9,313.8 L511.1,308.8 L506.8,298.9 L489.7,296.9 L484.1,298.8 Z M556.1,0.0 L556.8,0.4 L550.1,9.9 L542.9,1.7 L543.7,0.0 Z">
  <desc xmlns="http://www.highcharts.com/svg/namespace">
    <iso-a3>RUS</iso-a3>
    <country-abbrev>Rus.</country-abbrev>
    <subregion>Eastern Europe</subregion>
    <note>NULL</note>
    <woe-id>23424936</woe-id>
    <region-wb>Europe &amp; Central Asia</region-wb>
    <name>Russia</name>
    <iso-a2>RU</iso-a2>
    <region-un>Europe</region-un>
    <continent>Europe</continent>
  </desc>
</path>

<path fill="#CEE3F5" stroke="#6E6E6E" stroke-width="0.1" id="RO" d="M546.6,488.9 L547.9,495.4 L541.6,498.9 L538.9,495.0 L538.0,497.6 L540.1,503.0 L537.9,508.5 L539.9,514.3 L539.9,519.4 L517.5,516.7 L497.6,531.3 L469.5,532.5 L459.9,527.7 L454.8,519.0 L452.3,523.6 L440.4,518.9 L441.3,513.7 L430.7,508.5 L430.3,503.7 L422.3,498.1 L433.3,493.2 L436.7,484.3 L440.4,469.1 L443.1,464.4 L448.8,461.3 L450.0,458.8 L470.5,454.9 L475.5,458.2 L490.3,449.7 L494.6,443.6 L499.6,444.2 L502.5,447.1 L505.5,452.3 L509.6,455.1 L514.1,460.2 L517.3,461.6 L521.6,467.6 L522.9,471.8 L522.8,480.1 L526.8,489.5 L535.3,491.7 Z">
  <desc xmlns="http://www.highcharts.com/svg/namespace">
    <iso-a3>ROU</iso-a3>
    <country-abbrev>Rom.</country-abbrev>
    <subregion>Eastern Europe</subregion>
    <note>NULL</note>
    <woe-id>23424933</woe-id>
    <region-wb>Europe &amp; Central Asia</region-wb>
    <name>Romania</name>
    <iso-a2>RO</iso-a2>
    <region-un>Europe</region-un>
    <continent>Europe</continent>
  </desc>
</path>

<path fill="#CEE3F5" stroke="#6E6E6E" stroke-width="0.1" id="VA" d="M324.0,586.1 L324.0,586.0 L324.0,586.0 L324.0,586.1 L324.0,586.1 Z">
  <desc xmlns="http://www.highcharts.com/svg/namespace">
    <iso-a3>VAT</iso-a3>
    <country-abbrev>Vat.</country-abbrev>
    <subregion>Southern Europe</subregion>
    <note>NULL</note>
    <woe-id>23424986</woe-id>
    <region-wb>Europe &amp; Central Asia</region-wb>
    <name>Vatican</name>
    <iso-a2>VA</iso-a2>
    <region-un>Europe</region-un>
    <continent>Europe</continent>
  </desc>
</path>

<path fill="#CEE3F5" stroke="#6E6E6E" stroke-width="0.1" id="PT" d="M24.4,644.1 L18.1,645.9 L6.0,640.8 L0.0,641.2 L5.3,633.3 L9.6,617.2 L8.1,613.9 L4.0,614.6 L4.5,609.8 L1.3,608.0 L6.3,598.3 L12.2,591.8 L18.1,581.7 L24.5,569.3 L25.1,554.9 L28.0,551.1 L36.1,549.6 L34.7,554.5 L42.8,557.6 L50.0,556.4 L57.7,559.4 L61.1,567.1 L48.5,574.9 L47.7,587.6 L44.9,593.7 L41.3,599.1 L33.8,597.4 L39.2,611.8 L31.0,621.0 L34.0,630.0 L30.1,630.0 L24.4,636.7 Z">
  <desc xmlns="http://www.highcharts.com/svg/namespace">
    <iso-a3>PRT</iso-a3>
    <country-abbrev>Port.</country-abbrev>
    <subregion>Southern Europe</subregion>
    <note>NULL</note>
    <woe-id>23424925</woe-id>
    <region-wb>Europe &amp; Central Asia</region-wb>
    <name>Portugal</name>
    <iso-a2>PT</iso-a2>
    <region-un>Europe</region-un>
    <continent>Europe</continent>
  </desc>
</path>

<path fill="#CEE3F5" stroke="#6E6E6E" stroke-width="0.1" id="MT" d="M361.2,700.0 L357.6,699.5 L357.2,697.8 L360.1,698.5 Z">
  <desc xmlns="http://www.highcharts.com/svg/namespace">
    <iso-a3>MLT</iso-a3>
    <country-abbrev>Malta</country-abbrev>
    <subregion>Southern Europe</subregion>
    <note>NULL</note>
    <woe-id>23424897</woe-id>
    <region-wb>Middle East &amp; North Africa</region-wb>
    <name>Malta</name>
    <iso-a2>MT</iso-a2>
    <region-un>Europe</region-un>
    <continent>Europe</continent>
  </desc>
</path>

<path fill="#CEE3F5" stroke="#6E6E6E" stroke-width="0.1" id="DE" d="M323.1,349.5 L325.8,348.7 L326.6,350.4 L328.2,350.7 L330.3,353.0 L327.4,353.1 L325.0,354.9 L323.3,353.4 L324.7,351.0 Z M279.3,478.6 L279.3,478.6 L279.1,478.4 Z M275.0,343.6 L276.8,343.5 L283.3,345.4 L284.9,344.3 L289.7,347.9 L289.6,350.3 L297.8,354.6 L301.1,354.0 L301.0,357.0 L297.6,359.6 L299.1,361.1 L305.7,360.3 L308.3,357.3 L312.3,356.9 L316.5,351.2 L320.7,353.0 L323.3,354.5 L327.3,357.7 L329.8,356.6 L332.3,360.4 L331.4,361.6 L332.1,362.0 L332.6,358.1 L331.0,356.1 L335.6,360.3 L335.3,360.9 L335.6,361.4 L332.3,362.2 L336.5,364.7 L335.8,380.5 L342.0,385.3 L342.3,399.7 L348.0,409.9 L346.0,417.1 L342.1,414.4 L340.5,417.0 L331.9,420.6 L330.2,422.8 L319.3,427.2 L316.3,433.7 L319.7,436.2 L318.2,439.3 L323.5,446.8 L325.9,447.3 L332.1,453.7 L336.4,456.7 L335.4,461.3 L331.7,464.2 L323.7,469.3 L327.0,474.3 L327.8,480.9 L316.8,477.3 L316.7,479.2 L309.8,479.7 L305.3,483.3 L301.8,483.5 L294.6,480.2 L293.3,485.3 L285.8,480.7 L277.7,475.6 L279.1,478.3 L275.6,478.6 L271.8,475.9 L269.1,478.3 L269.8,479.8 L258.9,479.5 L259.0,469.9 L262.3,460.3 L267.1,453.9 L256.0,451.0 L249.1,449.4 L246.8,444.4 L245.0,444.0 L247.2,437.7 L242.9,431.4 L246.0,428.1 L245.9,424.9 L242.1,419.7 L241.5,414.4 L245.2,407.9 L242.4,400.0 L247.7,399.9 L255.4,392.7 L255.0,388.6 L255.8,385.0 L258.1,373.9 L259.3,372.3 L256.3,371.4 L257.1,367.5 L259.5,365.3 L266.8,365.3 L269.1,368.5 L273.5,368.8 L272.6,366.2 L273.7,363.0 L278.5,362.4 L276.6,359.7 L276.7,355.6 L274.7,352.8 L278.4,350.5 L275.2,346.7 Z">
  <desc xmlns="http://www.highcharts.com/svg/namespace">
    <iso-a3>DEU</iso-a3>
    <country-abbrev>Ger.</country-abbrev>
    <subregion>Western Europe</subregion>
    <note>NULL</note>
    <woe-id>23424829</woe-id>
    <region-wb>Europe &amp; Central Asia</region-wb>
    <name>Germany</name>
    <iso-a2>DE</iso-a2>
    <region-un>Europe</region-un>
    <continent>Europe</continent>
  </desc>
</path>

<path fill="#CEE3F5" stroke="#6E6E6E" stroke-width="0.1" id="PL" d="M393.5,345.1 L391.4,348.7 L395.0,345.2 L426.9,341.9 L427.5,341.5 L434.3,342.9 L436.7,347.8 L443.9,361.3 L445.7,369.5 L438.8,378.6 L444.8,381.3 L446.5,391.8 L454.9,403.0 L455.7,408.5 L446.0,421.4 L441.9,430.3 L446.2,439.6 L442.2,438.9 L432.6,434.8 L425.6,434.5 L422.3,437.9 L414.4,437.4 L411.8,441.8 L403.3,435.0 L396.3,437.5 L392.1,430.6 L383.4,430.3 L380.0,427.1 L371.2,423.0 L372.6,425.6 L369.6,429.4 L362.9,423.9 L364.3,419.7 L353.5,417.6 L351.3,414.9 L347.6,414.5 L346.0,417.1 L348.0,409.9 L342.3,399.7 L342.0,385.3 L335.8,380.5 L336.5,364.7 L339.2,365.1 L340.3,361.6 L335.6,361.4 L335.3,360.9 L335.6,360.3 L356.2,352.2 L360.4,346.9 L378.6,339.7 L382.4,346.8 L393.4,345.0 Z">
  <desc xmlns="http://www.highcharts.com/svg/namespace">
    <iso-a3>POL</iso-a3>
    <country-abbrev>Pol.</country-abbrev>
    <subregion>Eastern Europe</subregion>
    <note>NULL</note>
    <woe-id>23424923</woe-id>
    <region-wb>Europe &amp; Central Asia</region-wb>
    <name>Poland</name>
    <iso-a2>PL</iso-a2>
    <region-un>Europe</region-un>
    <continent>Europe</continent>
  </desc>
</path>

<path fill="#CEE3F5" stroke="#6E6E6E" stroke-width="0.1" id="IE" d="M106.7,318.5 L102.2,323.7 L99.4,325.4 L94.5,327.0 L96.6,332.6 L101.8,335.6 L105.9,331.0 L108.9,338.8 L112.8,338.6 L114.1,340.7 L111.6,340.1 L111.4,346.9 L112.6,348.5 L111.5,351.7 L111.1,359.8 L107.4,364.7 L107.0,366.9 L104.2,369.8 L103.7,373.1 L98.8,370.8 L97.7,372.2 L91.6,371.3 L89.3,373.3 L86.4,373.3 L83.9,375.0 L81.1,374.8 L75.0,377.5 L73.3,376.7 L68.2,377.0 L66.9,376.0 L61.7,376.4 L65.6,374.3 L66.4,372.3 L60.2,373.1 L59.9,371.5 L64.6,369.7 L60.4,370.0 L57.2,366.7 L64.2,363.9 L58.0,362.6 L58.4,361.3 L62.1,360.3 L65.1,362.2 L65.2,358.7 L68.6,358.3 L69.7,356.8 L73.5,357.8 L75.1,357.4 L70.7,355.9 L67.5,355.8 L71.9,354.0 L74.3,351.2 L73.0,350.7 L76.3,347.6 L79.9,348.6 L80.4,346.4 L73.0,344.6 L73.8,342.7 L69.4,341.1 L68.6,337.6 L72.4,337.4 L72.5,334.7 L76.3,335.1 L76.9,333.2 L73.0,332.9 L72.0,330.7 L74.5,331.8 L73.8,326.2 L76.1,324.7 L82.4,327.4 L82.6,330.1 L84.2,327.7 L90.3,329.6 L88.6,327.6 L93.5,325.7 L95.7,323.9 L89.8,322.9 L88.9,321.1 L92.0,319.4 L94.4,319.9 L93.5,317.7 L96.4,314.2 L101.7,314.7 L103.5,313.8 L104.3,318.4 L104.8,313.8 L106.7,312.5 L110.5,316.6 Z">
  <desc xmlns="http://www.highcharts.com/svg/namespace">
    <iso-a3>IRL</iso-a3>
    <country-abbrev>Ire.</country-abbrev>
    <subregion>Northern Europe</subregion>
    <note>NULL</note>
    <woe-id>23424803</woe-id>
    <region-wb>Europe &amp; Central Asia</region-wb>
    <name>Ireland</name>
    <iso-a2>IE</iso-a2>
    <region-un>Europe</region-un>
    <continent>Europe</continent>
  </desc>
</path>

<path fill="#CEE3F5" stroke="#6E6E6E" stroke-width="0.1" id="LV" d="M431.0,274.2 L439.6,268.4 L447.7,271.0 L454.7,275.7 L462.2,273.7 L468.0,284.8 L476.4,296.8 L472.4,304.5 L462.7,309.3 L442.2,299.1 L438.4,303.3 L413.9,304.9 L404.3,313.0 L402.2,298.7 L406.4,284.6 L414.5,279.4 L428.2,291.9 L434.1,285.7 Z">
  <desc xmlns="http://www.highcharts.com/svg/namespace">
    <iso-a3>LVA</iso-a3>
    <country-abbrev>Lat.</country-abbrev>
    <subregion>Northern Europe</subregion>
    <note>NULL</note>
    <woe-id>23424874</woe-id>
    <region-wb>Europe &amp; Central Asia</region-wb>
    <name>Latvia</name>
    <iso-a2>LV</iso-a2>
    <region-un>Europe</region-un>
    <continent>Europe</continent>
  </desc>
</path>

<path fill="#CEE3F5" stroke="#6E6E6E" stroke-width="0.1" id="SM" d="M322.0,548.4 L321.9,547.6 L323.1,546.9 L323.2,547.7 L322.8,548.5 Z">
  <desc xmlns="http://www.highcharts.com/svg/namespace">
    <iso-a3>SMR</iso-a3>
    <country-abbrev>S.M.</country-abbrev>
    <subregion>Southern Europe</subregion>
    <note>NULL</note>
    <woe-id>23424947</woe-id>
    <region-wb>Europe &amp; Central Asia</region-wb>
    <name>San Marino</name>
    <iso-a2>SM</iso-a2>
    <region-un>Europe</region-un>
    <continent>Europe</continent>
  </desc>
</path>

<path fill="#CEE3F5" stroke="#6E6E6E" stroke-width="0.1" id="CY" d="M661.4,656.6 L661.2,656.6 L661.2,656.4 L661.4,656.3 L661.4,656.5 Z M662.1,656.9 L662.0,656.9 L661.6,656.8 Z M665.2,654.2 L666.9,655.4 L663.8,656.6 L661.9,655.7 L663.3,654.7 L663.8,654.7 Z M660.9,657.4 L660.4,660.6 L652.6,667.1 L651.9,666.5 L649.4,666.8 L648.6,668.0 L638.7,662.2 L642.8,659.3 L643.5,659.5 L643.8,658.7 L644.3,658.6 L646.9,660.2 L655.4,655.4 L660.8,657.1 Z">
  <desc xmlns="http://www.highcharts.com/svg/namespace">
    <iso-a3>CYP</iso-a3>
    <country-abbrev>Cyp.</country-abbrev>
    <subregion>Western Asia</subregion>
    <note>NULL</note>
    <woe-id>-90</woe-id>
    <region-wb>Europe &amp; Central Asia</region-wb>
    <name>Cyprus</name>
    <iso-a2>CY</iso-a2>
    <region-un>Asia</region-un>
    <continent>Asia</continent>
  </desc>
</path>

<path fill="#CEE3F5" stroke="#6E6E6E" stroke-width="0.1" id="ME" d="M420.7,570.0 L420.4,570.4 L420.3,570.8 L420.2,571.0 L417.3,571.5 L420.8,574.6 L420.8,577.0 L421.3,579.0 L413.4,571.7 L410.0,569.0 L407.9,569.9 L407.0,568.9 L406.8,567.4 L406.0,559.2 L411.1,549.2 L414.9,547.9 L421.6,553.9 L432.4,558.9 L428.3,561.5 L429.3,564.7 L424.0,563.4 Z">
  <desc xmlns="http://www.highcharts.com/svg/namespace">
    <iso-a3>MNE</iso-a3>
    <country-abbrev>Mont.</country-abbrev>
    <subregion>Southern Europe</subregion>
    <note>NULL</note>
    <woe-id>20069817</woe-id>
    <region-wb>Europe &amp; Central Asia</region-wb>
    <name>Montenegro</name>
    <iso-a2>ME</iso-a2>
    <region-un>Europe</region-un>
    <continent>Europe</continent>
  </desc>
</path>

<path fill="#CEE3F5" stroke="#6E6E6E" stroke-width="0.1" id="CH" d="M279.3,478.6 L283.0,481.8 L283.7,481.3 L284.9,483.2 L283.3,486.0 L282.7,489.7 L284.0,489.8 L290.8,493.8 L295.2,493.4 L295.1,499.5 L290.5,498.3 L288.9,502.9 L283.7,504.1 L282.1,500.4 L275.0,512.8 L274.2,508.2 L264.4,504.5 L261.0,510.8 L250.5,510.2 L248.5,506.4 L247.8,501.0 L245.8,498.9 L242.5,501.3 L240.4,502.8 L239.5,497.1 L245.9,490.1 L251.9,483.8 L251.5,480.8 L256.5,482.1 L258.9,479.5 L269.8,479.8 L269.1,478.3 L271.8,475.9 L275.6,478.6 Z">
  <desc xmlns="http://www.highcharts.com/svg/namespace">
    <iso-a3>CHE</iso-a3>
    <country-abbrev>Switz.</country-abbrev>
    <subregion>Western Europe</subregion>
    <note>NULL</note>
    <woe-id>23424957</woe-id>
    <region-wb>Europe &amp; Central Asia</region-wb>
    <name>Switzerland</name>
    <iso-a2>CH</iso-a2>
    <region-un>Europe</region-un>
    <continent>Europe</continent>
  </desc>
</path>

<path fill="#CEE3F5" stroke="#6E6E6E" stroke-width="0.1" id="KOS" d="M429.3,564.7 L428.3,561.5 L432.4,558.9 L437.4,549.9 L446.8,558.3 L452.4,558.8 L450.9,567.1 L444.6,569.1 L438.1,576.3 L436.3,570.1 Z">
  <desc xmlns="http://www.highcharts.com/svg/namespace">
    <iso-a3>-99</iso-a3>
    <country-abbrev>Kos.</country-abbrev>
    <subregion>Southern Europe</subregion>
    <note>NULL</note>
    <woe-id>-90</woe-id>
    <region-wb>Europe &amp; Central Asia</region-wb>
    <name>Kosovo</name>
    <iso-a2>-99</iso-a2>
    <region-un>Europe</region-un>
    <continent>Europe</continent>
  </desc>
</path>

<path fill="#CEE3F5" stroke="#6E6E6E" stroke-width="0.1" id="CYN" d="M643.0,659.1 L643.2,658.9 L643.5,658.8 L643.5,659.1 L643.4,659.3 L643.3,659.3 Z M663.4,654.5 L661.5,656.0 L660.2,656.4 L654.9,654.8 L644.6,658.5 L669.6,640.5 L665.0,654.1 L664.2,654.3 Z">
  <desc xmlns="http://www.highcharts.com/svg/namespace">
    <iso-a3>-99</iso-a3>
    <country-abbrev>N. Cy.</country-abbrev>
    <subregion>Western Asia</subregion>
    <note>Self admin.</note>
    <woe-id>-90</woe-id>
    <region-wb>Europe &amp; Central Asia</region-wb>
    <name>Northern Cyprus</name>
    <iso-a2>-99</iso-a2>
    <region-un>Asia</region-un>
    <continent>Asia</continent>
  </desc>
</path>

<path fill="#CEE3F5" stroke="#6E6E6E" stroke-width="0.1" id="SI" d="M336.7,518.0 L336.6,517.1 L338.2,516.0 L336.6,505.0 L333.0,503.2 L337.1,498.7 L348.1,500.7 L353.8,495.5 L366.7,493.4 L367.4,490.2 L370.5,490.4 L373.4,496.4 L369.8,496.9 L366.9,501.0 L362.6,502.9 L363.5,509.8 L358.4,512.1 L360.0,516.7 L357.1,517.9 L350.8,516.3 Z">
  <desc xmlns="http://www.highcharts.com/svg/namespace">
    <iso-a3>SVN</iso-a3>
    <country-abbrev>Slo.</country-abbrev>
    <subregion>Southern Europe</subregion>
    <note>NULL</note>
    <woe-id>23424945</woe-id>
    <region-wb>Europe &amp; Central Asia</region-wb>
    <name>Slovenia</name>
    <iso-a2>SI</iso-a2>
    <region-un>Europe</region-un>
    <continent>Europe</continent>
  </desc>
</path>

<path fill="#CEE3F5" stroke="#6E6E6E" stroke-width="0.1" id="HU" d="M373.4,496.4 L370.5,490.4 L367.4,490.2 L372.2,487.2 L370.9,479.8 L373.9,477.2 L370.1,475.0 L378.4,473.3 L378.8,467.7 L387.7,471.5 L399.9,468.6 L399.7,464.7 L413.0,461.3 L418.8,453.0 L439.4,452.0 L446.1,456.6 L450.0,458.8 L448.8,461.3 L443.1,464.4 L440.4,469.1 L436.7,484.3 L433.3,493.2 L422.3,498.1 L413.2,498.3 L405.4,503.7 L399.4,508.0 L392.1,508.2 L385.1,505.5 L377.8,498.3 Z">
  <desc xmlns="http://www.highcharts.com/svg/namespace">
    <iso-a3>HUN</iso-a3>
    <country-abbrev>Hun.</country-abbrev>
    <subregion>Eastern Europe</subregion>
    <note>NULL</note>
    <woe-id>23424844</woe-id>
    <region-wb>Europe &amp; Central Asia</region-wb>
    <name>Hungary</name>
    <iso-a2>HU</iso-a2>
    <region-un>Europe</region-un>
    <continent>Europe</continent>
  </desc>
</path>

<path fill="#CEE3F5" stroke="#6E6E6E" stroke-width="0.1" id="LT" d="M405.9,327.8 L405.2,327.8 L406.2,323.6 L406.2,321.2 L405.4,319.0 L404.3,313.0 L413.9,304.9 L438.4,303.3 L442.2,299.1 L462.7,309.3 L462.6,315.7 L466.1,315.6 L457.6,325.7 L458.4,331.3 L456.6,336.9 L450.1,342.2 L446.5,346.8 L436.7,347.8 L434.3,342.9 L427.5,341.5 L426.2,331.6 L408.9,327.8 L406.3,321.4 L406.7,324.9 Z">
  <desc xmlns="http://www.highcharts.com/svg/namespace">
    <iso-a3>LTU</iso-a3>
    <country-abbrev>Lith.</country-abbrev>
    <subregion>Northern Europe</subregion>
    <note>NULL</note>
    <woe-id>23424875</woe-id>
    <region-wb>Europe &amp; Central Asia</region-wb>
    <name>Lithuania</name>
    <iso-a2>LT</iso-a2>
    <region-un>Europe</region-un>
    <continent>Europe</continent>
  </desc>
</path>

<path fill="#CEE3F5" stroke="#6E6E6E" stroke-width="0.1" id="BG" d="M539.9,519.4 L540.3,526.6 L535.9,527.0 L534.1,535.2 L535.6,540.6 L533.2,546.1 L540.8,553.7 L534.6,556.6 L530.0,554.0 L520.8,559.4 L518.8,564.1 L515.1,565.0 L517.4,571.3 L506.2,576.1 L500.0,574.3 L494.1,572.4 L487.8,574.3 L482.3,578.4 L472.7,580.9 L472.7,573.5 L469.4,568.4 L461.5,564.1 L461.9,553.3 L464.8,552.5 L466.3,546.0 L460.1,542.1 L456.7,536.3 L459.9,527.7 L469.5,532.5 L497.6,531.3 L517.5,516.7 Z">
  <desc xmlns="http://www.highcharts.com/svg/namespace">
    <iso-a3>BGR</iso-a3>
    <country-abbrev>Bulg.</country-abbrev>
    <subregion>Eastern Europe</subregion>
    <note>NULL</note>
    <woe-id>23424771</woe-id>
    <region-wb>Europe &amp; Central Asia</region-wb>
    <name>Bulgaria</name>
    <iso-a2>BG</iso-a2>
    <region-un>Europe</region-un>
    <continent>Europe</continent>
  </desc>
</path>

<path fill="#CEE3F5" stroke="#6E6E6E" stroke-width="0.1" id="UA" d="M546.6,488.9 L535.3,491.7 L526.8,489.5 L533.8,477.2 L531.5,469.0 L534.3,466.9 L540.1,468.4 L546.0,466.5 L541.9,459.2 L536.6,458.1 L534.7,451.3 L528.3,449.0 L528.1,442.5 L521.6,439.6 L512.3,439.5 L505.2,436.6 L501.3,440.0 L496.7,440.5 L494.6,443.6 L490.3,449.7 L475.5,458.2 L470.5,454.9 L450.0,458.8 L446.1,456.6 L439.4,452.0 L440.7,446.2 L442.2,438.9 L446.2,439.6 L441.9,430.3 L446.0,421.4 L455.7,408.5 L454.9,403.0 L446.5,391.8 L454.1,383.4 L469.4,379.2 L482.3,379.6 L487.5,381.3 L500.1,379.5 L505.0,380.6 L508.3,375.4 L511.8,379.4 L520.5,374.7 L526.3,377.8 L524.0,371.4 L526.4,361.5 L535.1,358.4 L540.3,352.4 L546.9,351.7 L555.7,346.6 L561.4,352.6 L566.7,364.6 L577.1,362.2 L588.9,374.5 L593.2,371.3 L600.1,373.0 L607.9,365.5 L617.9,372.0 L618.6,368.5 L629.0,369.3 L643.8,367.4 L646.5,373.0 L643.0,379.1 L652.2,390.3 L652.8,399.0 L642.5,402.9 L638.2,409.9 L640.2,419.2 L632.8,422.5 L631.3,427.3 L615.7,438.0 L611.3,445.3 L609.7,444.5 L605.6,451.4 L607.9,455.3 L617.1,463.0 L621.9,462.1 L623.0,458.9 L632.2,456.2 L632.9,463.2 L626.0,467.3 L622.5,466.2 L616.5,474.0 L610.4,478.2 L609.7,482.2 L606.1,486.7 L597.6,485.9 L599.7,484.1 L596.8,475.8 L586.9,473.9 L582.1,475.7 L584.9,469.1 L594.4,460.0 L585.9,457.1 L582.3,460.4 L584.8,461.6 L567.4,463.1 L572.5,461.8 L567.7,460.5 L569.5,458.0 L563.7,457.9 L573.7,456.3 L575.0,453.4 L568.7,454.7 L556.1,459.1 L552.7,470.3 L549.6,476.3 L545.6,481.4 L543.3,477.9 Z M614.8,464.7 L618.8,464.8 L611.1,459.2 L606.3,453.9 L603.6,453.0 L603.6,455.7 L601.7,456.0 L602.3,453.3 L597.2,452.1 L595.1,454.2 L591.2,455.3 L596.4,457.6 L596.6,456.1 L603.5,457.9 L603.8,459.9 L606.0,458.8 L610.7,459.4 Z">
  <desc xmlns="http://www.highcharts.com/svg/namespace">
    <iso-a3>UKR</iso-a3>
    <country-abbrev>Ukr.</country-abbrev>
    <subregion>Eastern Europe</subregion>
    <note>NULL</note>
    <woe-id>23424976</woe-id>
    <region-wb>Europe &amp; Central Asia</region-wb>
    <name>Ukraine</name>
    <iso-a2>UA</iso-a2>
    <region-un>Europe</region-un>
    <continent>Europe</continent>
  </desc>
</path>

<path fill="#CEE3F5" stroke="#6E6E6E" stroke-width="0.1" id="IT" d="M337.1,498.7 L333.0,503.2 L336.6,505.0 L338.2,516.0 L335.9,512.4 L318.6,522.1 L323.1,528.3 L320.0,530.8 L321.4,541.9 L326.2,546.8 L338.9,554.7 L346.1,571.9 L356.0,581.0 L361.6,583.5 L374.3,582.3 L375.0,592.0 L390.4,597.2 L404.8,603.9 L413.4,613.2 L411.9,619.4 L403.3,611.0 L391.3,607.8 L385.7,616.7 L385.0,624.3 L395.0,628.7 L395.1,638.4 L387.1,642.6 L388.0,648.1 L381.6,657.9 L375.2,658.1 L376.8,644.7 L381.7,642.6 L377.8,629.7 L371.2,618.1 L367.4,619.7 L360.8,615.7 L358.0,607.6 L348.3,605.2 L342.5,597.6 L332.9,598.5 L315.1,583.8 L312.6,579.3 L296.6,567.3 L296.9,563.1 L290.8,546.8 L279.0,540.4 L272.2,539.0 L264.5,547.6 L255.4,550.4 L257.7,543.3 L247.2,539.2 L250.0,533.5 L244.3,525.3 L251.1,522.7 L247.5,511.9 L250.5,510.2 L261.0,510.8 L264.4,504.5 L274.2,508.2 L275.0,512.8 L282.1,500.4 L283.7,504.1 L288.9,502.9 L290.5,498.3 L295.1,499.5 L295.2,493.4 L302.2,495.1 L306.2,491.0 L316.4,490.6 L320.3,496.2 Z M324.0,586.1 L324.0,586.1 L324.0,586.1 L324.0,586.0 L324.0,586.0 Z M322.0,548.4 L322.8,548.5 L323.2,547.7 L323.1,546.9 L321.9,547.6 Z M372.4,652.0 L367.7,671.1 L371.5,676.8 L368.0,683.8 L358.8,681.8 L349.3,676.5 L334.3,668.2 L330.0,668.4 L325.1,661.9 L331.1,656.6 L346.8,659.8 L354.1,658.6 Z M268.5,643.5 L268.0,640.5 L266.3,639.5 L265.3,634.3 L268.1,624.8 L265.9,624.2 L267.3,620.5 L267.0,616.5 L265.0,611.4 L262.8,611.7 L263.6,606.0 L268.1,606.8 L271.6,605.2 L278.4,598.7 L281.3,600.2 L286.9,612.8 L283.9,617.7 L285.5,621.1 L284.1,632.5 L282.8,639.1 L278.9,637.5 L275.7,637.6 L274.7,641.8 L272.3,643.9 Z">
  <desc xmlns="http://www.highcharts.com/svg/namespace">
    <iso-a3>ITA</iso-a3>
    <country-abbrev>Italy</country-abbrev>
    <subregion>Southern Europe</subregion>
    <note>NULL</note>
    <woe-id>23424853</woe-id>
    <region-wb>Europe &amp; Central Asia</region-wb>
    <name>Italy</name>
    <iso-a2>IT</iso-a2>
    <region-un>Europe</region-un>
    <continent>Europe</continent>
  </desc>
</path>

<path fill="#CEE3F5" stroke="#6E6E6E" stroke-width="0.1" id="MC" d="M254.4,551.3 L254.0,551.8 L253.5,551.7 L253.6,551.2 L254.0,550.9 Z">
  <desc xmlns="http://www.highcharts.com/svg/namespace">
    <iso-a3>MCO</iso-a3>
    <country-abbrev>Mco.</country-abbrev>
    <subregion>Western Europe</subregion>
    <note>NULL</note>
    <woe-id>23424892</woe-id>
    <region-wb>Europe &amp; Central Asia</region-wb>
    <name>Monaco</name>
    <iso-a2>MC</iso-a2>
    <region-un>Europe</region-un>
    <continent>Europe</continent>
  </desc>
</path>

<path fill="#CEE3F5" stroke="#6E6E6E" stroke-width="0.1" id="LI" d="M284.0,489.8 L282.7,489.7 L283.3,486.0 L284.5,488.9 Z">
  <desc xmlns="http://www.highcharts.com/svg/namespace">
    <iso-a3>LIE</iso-a3>
    <country-abbrev>Liech.</country-abbrev>
    <subregion>Western Europe</subregion>
    <note>NULL</note>
    <woe-id>23424879</woe-id>
    <region-wb>Europe &amp; Central Asia</region-wb>
    <name>Liechtenstein</name>
    <iso-a2>LI</iso-a2>
    <region-un>Europe</region-un>
    <continent>Europe</continent>
  </desc>
</path>

<path fill="#CEE3F5" stroke="#6E6E6E" stroke-width="0.1" id="AL" d="M446.4,593.8 L446.3,593.9 L446.1,593.6 L446.4,593.7 Z M441.2,590.9 L441.9,593.9 L443.0,594.0 L444.3,593.6 L446.1,593.6 L445.9,593.9 L446.6,594.4 L446.6,594.4 L446.0,596.1 L446.8,595.6 L446.5,596.2 L447.8,597.4 L447.5,597.7 L447.9,597.5 L444.2,609.4 L439.6,612.1 L441.2,614.8 L435.9,618.3 L432.9,611.9 L427.0,609.6 L426.4,605.0 L423.5,601.8 L425.7,596.5 L422.9,587.4 L424.5,579.2 L421.3,579.0 L420.8,577.0 L420.8,574.6 L422.2,573.4 L420.7,570.0 L424.0,563.4 L429.3,564.7 L436.3,570.1 L438.1,576.3 L437.4,583.3 Z M420.3,570.8 L420.3,571.0 L420.2,571.0 Z">
  <desc xmlns="http://www.highcharts.com/svg/namespace">
    <iso-a3>ALB</iso-a3>
    <country-abbrev>Alb.</country-abbrev>
    <subregion>Southern Europe</subregion>
    <note>NULL</note>
    <woe-id>23424742</woe-id>
    <region-wb>Europe &amp; Central Asia</region-wb>
    <name>Albania</name>
    <iso-a2>AL</iso-a2>
    <region-un>Europe</region-un>
    <continent>Europe</continent>
  </desc>
</path>

<path fill="#CEE3F5" stroke="#6E6E6E" stroke-width="0.1" id="NL" d="M212.0,405.8 L217.9,406.8 L222.1,406.8 L218.4,409.5 Z M222.6,406.8 L217.6,406.0 L213.6,402.5 L217.9,401.9 L216.5,399.6 L219.9,397.6 L226.8,389.1 L232.2,372.9 L231.3,378.7 L237.6,375.6 L243.3,369.4 L250.1,367.7 L258.1,373.9 L255.8,385.0 L255.0,388.6 L255.4,392.7 L247.7,399.9 L242.4,400.0 L245.2,407.9 L241.5,414.4 L242.1,419.7 L238.5,419.3 L240.6,412.0 L233.5,409.6 L231.4,405.5 Z M240.3,384.9 L234.0,388.7 L240.2,384.8 L237.5,376.0 L232.1,388.8 L237.4,391.3 Z">
  <desc xmlns="http://www.highcharts.com/svg/namespace">
    <iso-a3>NLD</iso-a3>
    <country-abbrev>Neth.</country-abbrev>
    <subregion>Western Europe</subregion>
    <note>NULL</note>
    <woe-id>-90</woe-id>
    <region-wb>Europe &amp; Central Asia</region-wb>
    <name>Netherlands</name>
    <iso-a2>NL</iso-a2>
    <region-un>Europe</region-un>
    <continent>Europe</continent>
  </desc>
</path>

<path fill="#CEE3F5" stroke="#6E6E6E" stroke-width="0.1" id="AT" d="M283.7,481.3 L285.2,481.6 L285.8,480.7 L293.3,485.3 L294.6,480.2 L301.8,483.5 L305.3,483.3 L309.8,479.7 L316.7,479.2 L316.8,477.3 L327.8,480.9 L327.0,474.3 L323.7,469.3 L331.7,464.2 L335.4,461.3 L336.4,456.7 L339.8,459.8 L347.2,459.6 L350.4,451.3 L363.7,455.0 L368.6,453.9 L375.2,456.8 L374.3,461.4 L378.8,467.7 L378.4,473.3 L370.1,475.0 L373.9,477.2 L370.9,479.8 L372.2,487.2 L367.4,490.2 L366.7,493.4 L353.8,495.5 L348.1,500.7 L337.1,498.7 L320.3,496.2 L316.4,490.6 L306.2,491.0 L302.2,495.1 L295.2,493.4 L290.8,493.8 L284.0,489.8 L284.5,488.9 L283.3,486.0 L284.9,483.2 Z">
  <desc xmlns="http://www.highcharts.com/svg/namespace">
    <iso-a3>AUT</iso-a3>
    <country-abbrev>Aust.</country-abbrev>
    <subregion>Western Europe</subregion>
    <note>NULL</note>
    <woe-id>23424750</woe-id>
    <region-wb>Europe &amp; Central Asia</region-wb>
    <name>Austria</name>
    <iso-a2>AT</iso-a2>
    <region-un>Europe</region-un>
    <continent>Europe</continent>
  </desc>
</path>

<path fill="#CEE3F5" stroke="#6E6E6E" stroke-width="0.1" id="CNM" d="M665.0,654.1 L665.2,654.2 L663.8,654.7 L663.3,654.7 L663.4,654.5 L664.2,654.3 Z M642.8,659.3 L643.0,659.1 L643.3,659.3 L643.4,659.3 L643.5,659.1 L643.5,658.8 L643.7,658.7 L643.8,658.7 L643.5,659.5 Z M644.3,658.6 L644.6,658.5 L654.9,654.8 L660.2,656.4 L660.6,656.5 L660.8,657.1 L655.4,655.4 L646.9,660.2 Z">
  <desc xmlns="http://www.highcharts.com/svg/namespace">
    <iso-a3>-99</iso-a3>
    <country-abbrev>NULL</country-abbrev>
    <subregion>Western Asia</subregion>
    <note>NULL</note>
    <woe-id>-99</woe-id>
    <region-wb>Europe &amp; Central Asia</region-wb>
    <name>Cyprus No Mans Area</name>
    <iso-a2>-99</iso-a2>
    <region-un>Asia</region-un>
    <continent>Asia</continent>
  </desc>
</path>

<path fill="#CEE3F5" stroke="#6E6E6E" stroke-width="0.1" id="RS" d="M414.9,547.9 L414.4,539.9 L419.4,537.7 L412.9,533.8 L414.0,522.3 L409.4,523.3 L409.3,518.0 L413.7,516.8 L408.0,514.0 L405.4,503.7 L413.2,498.3 L422.3,498.1 L430.3,503.7 L430.7,508.5 L441.3,513.7 L440.4,518.9 L452.3,523.6 L454.8,519.0 L459.9,527.7 L456.7,536.3 L460.1,542.1 L466.3,546.0 L464.8,552.5 L461.9,553.3 L461.5,564.1 L460.1,563.2 L450.9,567.1 L452.4,558.8 L446.8,558.3 L437.4,549.9 L432.4,558.9 L421.6,553.9 Z">
  <desc xmlns="http://www.highcharts.com/svg/namespace">
    <iso-a3>SRB</iso-a3>
    <country-abbrev>Serb.</country-abbrev>
    <subregion>Southern Europe</subregion>
    <note>NULL</note>
    <woe-id>-90</woe-id>
    <region-wb>Europe &amp; Central Asia</region-wb>
    <name>Republic of Serbia</name>
    <iso-a2>RS</iso-a2>
    <region-un>Europe</region-un>
    <continent>Europe</continent>
  </desc>
</path>

<path fill="#CEE3F5" stroke="#6E6E6E" stroke-width="0.1" id="MK" d="M450.9,567.1 L460.1,563.2 L461.5,564.1 L469.4,568.4 L472.7,573.5 L472.7,580.9 L470.6,584.5 L459.2,587.9 L455.3,592.9 L448.8,594.1 L446.1,591.4 L446.4,593.8 L446.4,593.7 L446.1,593.6 L446.1,593.6 L446.1,593.6 L444.3,593.6 L443.0,594.0 L443.8,590.0 L441.2,590.9 L437.4,583.3 L438.1,576.3 L444.6,569.1 Z M446.6,594.4 L446.6,594.4 L446.6,594.4 Z">
  <desc xmlns="http://www.highcharts.com/svg/namespace">
    <iso-a3>MKD</iso-a3>
    <country-abbrev>Mkd.</country-abbrev>
    <subregion>Southern Europe</subregion>
    <note>NULL</note>
    <woe-id>23424890</woe-id>
    <region-wb>Europe &amp; Central Asia</region-wb>
    <name>Macedonia</name>
    <iso-a2>MK</iso-a2>
    <region-un>Europe</region-un>
    <continent>Europe</continent>
  </desc>
</path>

<path fill="#CEE3F5" stroke="#6E6E6E" stroke-width="0.1" id="LU" d="M242.9,431.4 L247.2,437.7 L245.0,444.0 L240.3,444.0 L238.4,442.1 L237.8,435.6 L241.5,430.4 Z">
  <desc xmlns="http://www.highcharts.com/svg/namespace">
    <iso-a3>LUX</iso-a3>
    <country-abbrev>Lux.</country-abbrev>
    <subregion>Western Europe</subregion>
    <note>NULL</note>
    <woe-id>23424881</woe-id>
    <region-wb>Europe &amp; Central Asia</region-wb>
    <name>Luxembourg</name>
    <iso-a2>LU</iso-a2>
    <region-un>Europe</region-un>
    <continent>Europe</continent>
  </desc>
</path>

<path fill="#CEE3F5" stroke="#6E6E6E" stroke-width="0.1" id="TR" d="M518.9,583.0 L522.3,577.8 L524.4,569.2 L518.8,564.1 L520.8,559.4 L530.0,554.0 L534.6,556.6 L540.8,553.7 L543.2,559.4 L559.3,563.2 L558.7,567.9 L548.0,569.1 L538.5,573.4 L535.3,581.2 L530.7,586.7 L537.8,583.9 L540.6,585.9 L545.3,584.8 L541.5,580.7 L546.6,582.9 L563.9,577.7 L558.2,577.5 L560.5,574.4 L573.1,568.7 L565.1,570.9 L559.4,568.1 L561.0,562.6 L570.4,561.8 L575.4,559.1 L583.8,559.2 L589.2,557.4 L590.4,552.6 L598.7,544.4 L599.7,541.6 L612.2,531.6 L630.9,526.6 L633.3,522.7 L639.1,527.3 L644.0,528.1 L649.0,524.1 L653.2,528.1 L658.9,530.4 L660.3,527.2 L675.4,528.1 L686.2,526.0 L697.4,517.9 L697.4,608.9 L692.1,607.8 L692.8,614.5 L696.5,618.5 L692.2,620.2 L693.6,624.5 L691.6,628.8 L683.1,621.7 L687.0,614.4 L682.3,609.5 L675.1,620.1 L664.9,618.2 L662.1,620.2 L653.3,636.0 L645.2,639.0 L640.9,642.5 L633.5,641.9 L626.3,636.8 L614.7,635.1 L604.5,636.5 L603.7,649.6 L601.2,649.1 L593.5,655.0 L584.4,653.0 L579.2,646.4 L568.8,647.2 L560.7,653.1 L559.3,650.6 L565.7,648.8 L568.3,643.4 L553.1,648.9 L557.0,641.8 L550.6,641.8 L548.1,629.9 L538.0,630.0 L532.1,628.1 L535.2,625.5 L534.4,620.1 L538.4,626.0 L541.6,622.7 L537.2,618.1 L540.9,612.9 L533.2,608.2 L535.9,601.5 L524.6,606.3 L524.1,596.0 L528.7,589.0 L523.4,595.2 L523.0,590.1 L530.5,582.9 Z">
  <desc xmlns="http://www.highcharts.com/svg/namespace">
    <iso-a3>TUR</iso-a3>
    <country-abbrev>Tur.</country-abbrev>
    <subregion>Western Asia</subregion>
    <note>NULL</note>
    <woe-id>23424969</woe-id>
    <region-wb>Europe &amp; Central Asia</region-wb>
    <name>Turkey</name>
    <iso-a2>TR</iso-a2>
    <region-un>Asia</region-un>
    <continent>Asia</continent>
  </desc>
</path>

<path fill="#CEE3F5" stroke="#6E6E6E" stroke-width="0.1" id="BY" d="M462.7,309.3 L472.4,304.5 L476.4,296.8 L484.1,298.8 L489.7,296.9 L506.8,298.9 L511.1,308.8 L509.9,313.8 L518.7,321.9 L524.7,323.4 L525.5,328.3 L533.5,327.5 L538.3,333.2 L533.0,339.8 L525.3,340.0 L531.8,355.3 L535.1,358.4 L526.4,361.5 L524.0,371.4 L526.3,377.8 L520.5,374.7 L511.8,379.4 L508.3,375.4 L505.0,380.6 L500.1,379.5 L487.5,381.3 L482.3,379.6 L469.4,379.2 L454.1,383.4 L446.5,391.8 L444.8,381.3 L438.8,378.6 L445.7,369.5 L443.9,361.3 L436.7,347.8 L446.5,346.8 L450.1,342.2 L456.6,336.9 L458.4,331.3 L457.6,325.7 L466.1,315.6 L462.6,315.7 Z">
  <desc xmlns="http://www.highcharts.com/svg/namespace">
    <iso-a3>BLR</iso-a3>
    <country-abbrev>Bela.</country-abbrev>
    <subregion>Eastern Europe</subregion>
    <note>NULL</note>
    <woe-id>23424765</woe-id>
    <region-wb>Europe &amp; Central Asia</region-wb>
    <name>Belarus</name>
    <iso-a2>BY</iso-a2>
    <region-un>Europe</region-un>
    <continent>Europe</continent>
  </desc>
</path>

<path fill="#CEE3F5" stroke="#6E6E6E" stroke-width="0.1" id="FRA" d="M247.8,501.0 L248.5,506.4 L250.5,510.2 L247.5,511.9 L251.1,522.7 L244.3,525.3 L250.0,533.5 L247.2,539.2 L257.7,543.3 L255.4,550.4 L255.0,550.9 L254.4,551.3 L254.0,550.9 L253.6,551.2 L253.5,551.7 L250.2,554.7 L244.5,557.2 L243.7,561.1 L232.2,563.4 L225.3,559.8 L223.2,555.7 L218.3,556.9 L214.2,554.5 L206.5,552.4 L194.5,559.4 L192.6,569.7 L194.2,572.1 L178.3,572.0 L173.9,568.6 L174.3,566.7 L170.2,566.5 L160.1,560.6 L159.8,563.4 L150.2,562.1 L146.7,558.6 L131.4,551.8 L133.1,548.9 L128.2,545.4 L133.1,542.5 L140.2,523.0 L139.1,523.5 L143.2,507.8 L144.1,506.5 L147.6,511.6 L148.0,509.8 L143.1,503.6 L145.2,500.3 L145.8,493.6 L137.6,487.7 L134.6,481.2 L136.9,477.2 L130.9,469.9 L132.0,467.4 L128.0,467.2 L129.0,464.9 L125.1,465.2 L120.2,460.4 L115.5,457.4 L109.8,457.8 L109.7,454.6 L107.0,452.3 L112.0,452.5 L109.6,448.3 L112.2,446.8 L107.2,447.1 L107.5,444.3 L110.6,442.3 L118.1,441.9 L122.8,443.6 L124.0,440.9 L129.2,441.4 L133.0,448.9 L138.1,446.4 L139.0,448.6 L143.9,446.9 L143.7,448.6 L149.5,448.8 L147.5,446.9 L148.4,438.0 L146.3,434.4 L145.9,428.1 L149.7,430.1 L152.3,429.4 L154.0,435.0 L163.0,438.0 L165.2,439.5 L173.2,437.4 L169.6,436.1 L171.8,432.0 L177.4,430.0 L183.6,429.2 L188.7,423.8 L190.4,413.0 L195.3,410.9 L201.9,410.1 L202.2,414.8 L208.1,416.4 L213.9,425.7 L220.2,427.5 L219.6,433.0 L228.0,430.2 L228.5,436.6 L234.5,442.6 L238.4,442.1 L240.3,444.0 L245.0,444.0 L246.8,444.4 L249.1,449.4 L256.0,451.0 L267.1,453.9 L262.3,460.3 L259.0,469.9 L258.9,479.5 L256.5,482.1 L251.5,480.8 L251.9,483.8 L245.9,490.1 L239.5,497.1 L240.4,502.8 L241.4,501.4 L242.5,501.3 Z M177.6,570.2 L177.8,570.2 L177.5,569.4 L177.1,569.8 L177.3,570.2 Z M277.0,571.0 L279.5,572.0 L280.3,566.1 L281.8,572.6 L283.1,582.7 L281.0,585.7 L280.9,590.3 L278.3,596.6 L272.2,593.0 L270.9,589.8 L271.7,583.8 L269.0,580.0 L271.5,574.0 Z">
  <desc xmlns="http://www.highcharts.com/svg/namespace">
    <iso-a3>-99</iso-a3>
    <country-abbrev>Fr.</country-abbrev>
    <subregion>Western Europe</subregion>
    <note>NULL</note>
    <woe-id>-90</woe-id>
    <region-wb>Europe &amp; Central Asia</region-wb>
    <name>France</name>
    <iso-a2>-99</iso-a2>
    <region-un>Europe</region-un>
    <continent>Europe</continent>
  </desc>
</path>

<path fill="#CEE3F5" stroke="#6E6E6E" stroke-width="0.1" id="AD" d="M170.2,566.5 L174.3,566.7 L173.9,568.6 L171.0,569.7 Z">
  <desc xmlns="http://www.highcharts.com/svg/namespace">
    <iso-a3>AND</iso-a3>
    <country-abbrev>And.</country-abbrev>
    <subregion>Southern Europe</subregion>
    <note>NULL</note>
    <woe-id>23424744</woe-id>
    <region-wb>Europe &amp; Central Asia</region-wb>
    <name>Andorra</name>
    <iso-a2>AD</iso-a2>
    <region-un>Europe</region-un>
    <continent>Europe</continent>
  </desc>
</path>

<path fill="#CEE3F5" stroke="#6E6E6E" stroke-width="0.1" id="SK" d="M442.2,438.9 L440.7,446.2 L439.4,452.0 L418.8,453.0 L413.0,461.3 L399.7,464.7 L399.9,468.6 L387.7,471.5 L378.8,467.7 L374.3,461.4 L375.2,456.8 L389.0,442.7 L396.3,437.5 L403.3,435.0 L411.8,441.8 L414.4,437.4 L422.3,437.9 L425.6,434.5 L432.6,434.8 Z">
  <desc xmlns="http://www.highcharts.com/svg/namespace">
    <iso-a3>SVK</iso-a3>
    <country-abbrev>Svk.</country-abbrev>
    <subregion>Eastern Europe</subregion>
    <note>NULL</note>
    <woe-id>23424877</woe-id>
    <region-wb>Europe &amp; Central Asia</region-wb>
    <name>Slovakia</name>
    <iso-a2>SK</iso-a2>
    <region-un>Europe</region-un>
    <continent>Europe</continent>
  </desc>
</path>

<path fill="#CEE3F5" stroke="#6E6E6E" stroke-width="0.1" id="CZ" d="M396.3,437.5 L389.0,442.7 L375.2,456.8 L368.6,453.9 L363.7,455.0 L350.4,451.3 L347.2,459.6 L339.8,459.8 L336.4,456.7 L332.1,453.7 L325.9,447.3 L323.5,446.8 L318.2,439.3 L319.7,436.2 L316.3,433.7 L319.3,427.2 L330.2,422.8 L331.9,420.6 L340.5,417.0 L342.1,414.4 L346.0,417.1 L347.6,414.5 L351.3,414.9 L353.5,417.6 L364.3,419.7 L362.9,423.9 L369.6,429.4 L372.6,425.6 L371.2,423.0 L380.0,427.1 L383.4,430.3 L392.1,430.6 Z">
  <desc xmlns="http://www.highcharts.com/svg/namespace">
    <iso-a3>CZE</iso-a3>
    <country-abbrev>Cz. Rep.</country-abbrev>
    <subregion>Eastern Europe</subregion>
    <note>NULL</note>
    <woe-id>23424810</woe-id>
    <region-wb>Europe &amp; Central Asia</region-wb>
    <name>Czech Republic</name>
    <iso-a2>CZ</iso-a2>
    <region-un>Europe</region-un>
    <continent>Europe</continent>
  </desc>
</path>

<path fill="#CEE3F5" stroke="#6E6E6E" stroke-width="0.1" id="BE" d="M201.9,410.1 L209.3,406.4 L212.0,405.8 L218.4,409.5 L222.1,406.8 L223.1,408.5 L222.6,406.8 L231.4,405.5 L233.5,409.6 L240.6,412.0 L238.5,419.3 L242.1,419.7 L245.9,424.9 L246.0,428.1 L242.9,431.4 L241.5,430.4 L237.8,435.6 L238.4,442.1 L234.5,442.6 L228.5,436.6 L228.0,430.2 L219.6,433.0 L220.2,427.5 L213.9,425.7 L208.1,416.4 L202.2,414.8 Z">
  <desc xmlns="http://www.highcharts.com/svg/namespace">
    <iso-a3>BEL</iso-a3>
    <country-abbrev>Belg.</country-abbrev>
    <subregion>Western Europe</subregion>
    <note>NULL</note>
    <woe-id>23424757</woe-id>
    <region-wb>Europe &amp; Central Asia</region-wb>
    <name>Belgium</name>
    <iso-a2>BE</iso-a2>
    <region-un>Europe</region-un>
    <continent>Europe</continent>
  </desc>
</path>

<path fill="#CEE3F5" stroke="#6E6E6E" stroke-width="0.1" id="FO" d="M140.8,189.2 L140.4,187.1 L144.0,188.3 L145.7,186.8 L146.1,189.4 L144.1,188.5 L142.7,192.2 L141.6,190.5 L141.5,194.2 L138.8,190.0 L138.6,189.4 L139.5,186.8 Z">
  <desc xmlns="http://www.highcharts.com/svg/namespace">
    <iso-a3>FRO</iso-a3>
    <country-abbrev>Faeroe Is.</country-abbrev>
    <subregion>Northern Europe</subregion>
    <note>Den.</note>
    <woe-id>23424816</woe-id>
    <region-wb>Europe &amp; Central Asia</region-wb>
    <name>Faroe Islands</name>
    <iso-a2>FO</iso-a2>
    <region-un>Europe</region-un>
    <continent>Europe</continent>
  </desc>
</path>

<path fill="#CEE3F5" stroke="#6E6E6E" stroke-width="0.1" id="IS" d="M93.8,88.3 L95.1,91.7 L93.9,93.5 L95.8,97.1 L97.2,95.1 L101.4,94.1 L102.8,95.2 L99.3,95.9 L97.4,99.7 L100.4,100.6 L100.2,102.8 L97.1,106.0 L100.3,107.3 L103.6,112.6 L104.9,113.2 L102.3,116.5 L103.6,117.9 L102.7,121.8 L101.3,122.7 L99.0,119.9 L100.2,123.8 L97.2,126.2 L93.3,126.2 L90.8,130.8 L83.3,130.7 L77.8,131.3 L73.8,133.4 L67.5,134.4 L66.0,133.5 L60.4,134.2 L58.0,136.2 L51.1,135.9 L47.1,133.3 L44.0,130.0 L40.9,128.4 L39.5,123.7 L35.9,119.3 L34.2,119.0 L27.0,115.3 L23.8,114.5 L26.2,110.1 L26.4,112.5 L29.3,113.1 L34.5,111.4 L33.1,110.4 L36.0,108.4 L32.5,108.4 L35.0,105.6 L32.7,103.4 L34.5,100.1 L25.7,94.5 L22.7,94.0 L23.0,91.4 L34.0,94.4 L36.6,94.6 L40.7,96.9 L42.3,94.2 L39.6,94.8 L36.2,92.1 L37.2,91.2 L43.1,90.1 L43.1,88.2 L40.6,88.6 L39.6,85.4 L37.9,85.7 L35.2,82.9 L28.6,83.2 L28.6,82.0 L25.0,79.1 L29.4,78.3 L31.0,75.9 L34.2,81.1 L33.0,77.5 L33.7,74.6 L34.5,73.2 L36.7,73.9 L36.4,71.9 L38.6,71.1 L40.0,74.5 L43.3,78.3 L44.6,76.8 L42.4,73.9 L42.8,68.3 L47.0,69.6 L49.5,74.9 L51.8,82.1 L51.1,84.5 L47.2,89.0 L48.2,92.2 L47.5,95.3 L51.6,90.2 L54.0,89.3 L53.8,93.4 L57.4,89.8 L58.9,83.4 L61.7,83.6 L62.0,91.4 L63.3,92.6 L64.5,88.5 L66.6,86.6 L68.5,87.8 L71.1,86.1 L72.8,91.4 L73.2,94.3 L74.9,88.2 L77.5,89.9 L78.4,94.1 L79.9,94.1 L82.8,91.1 L84.5,93.0 L88.0,93.3 L89.2,91.7 L89.8,87.4 Z">
  <desc xmlns="http://www.highcharts.com/svg/namespace">
    <iso-a3>ISL</iso-a3>
    <country-abbrev>Iceland</country-abbrev>
    <subregion>Northern Europe</subregion>
    <note>NULL</note>
    <woe-id>23424845</woe-id>
    <region-wb>Europe &amp; Central Asia</region-wb>
    <name>Iceland</name>
    <iso-a2>IS</iso-a2>
    <region-un>Europe</region-un>
    <continent>Europe</continent>
  </desc>
</path>

<path fill="#CEE3F5" stroke="#6E6E6E" stroke-width="0.1" id="MD" d="M494.6,443.6 L496.7,440.5 L501.3,440.0 L505.2,436.6 L512.3,439.5 L521.6,439.6 L528.1,442.5 L528.3,449.0 L534.7,451.3 L536.6,458.1 L541.9,459.2 L546.0,466.5 L540.1,468.4 L534.3,466.9 L531.5,469.0 L533.8,477.2 L526.8,489.5 L522.8,480.1 L522.9,471.8 L521.6,467.6 L517.3,461.6 L514.1,460.2 L509.6,455.1 L505.5,452.3 L502.5,447.1 L499.6,444.2 Z">
  <desc xmlns="http://www.highcharts.com/svg/namespace">
    <iso-a3>MDA</iso-a3>
    <country-abbrev>Mda.</country-abbrev>
    <subregion>Eastern Europe</subregion>
    <note>NULL</note>
    <woe-id>23424885</woe-id>
    <region-wb>Europe &amp; Central Asia</region-wb>
    <name>Moldova</name>
    <iso-a2>MD</iso-a2>
    <region-un>Europe</region-un>
    <continent>Europe</continent>
  </desc>
</path>
</g>

</svg>